<?xml version="1.0" encoding="UTF-8"?><svg id="_Слой_1" xmlns="http://www.w3.org/2000/svg" viewBox="0 0 30.894 30.8939"><defs><style>.cls-1{fill:#fff;}.cls-2{fill-rule:evenodd;}</style></defs><rect class="cls-1" width="30.894" height="30.8939"/><path class="cls-2" d="m6.0191,16.1385c-.0043.0122-.0094.03-.017.0533-.0077.0241-.0125.0419-.0153.0552-.0057-.0482-.0048-.0839.0014-.1097.0128.0046.0232.0054.0309.0012h0Zm-.0133.1992c-.0133-.0042-.0233-.0051-.0304-.0008.0213-.0454.0298-.0658.0219-.0615.0022.0207.0042.0411.0085.0623h0Zm4.943-8.1153l.432.4856c-.011.0054-.0215.0097-.0314.0142-.0029-.0071-.0049-.015-.0068-.0221.0102-.0046.0209-.0099.032-.0145.0023.0071.0042.0145.0062.0224l-.432-.4856h0Zm-.1953.2469c-.0113.0054-.0212.0097-.0323.0142-.0014-.0079-.0037-.015-.0057-.0241.0105-.0037.0204-.0091.0309-.0125.002.0071.004.0154.0071.0224h0Zm.5134.2903c-.0105.0045-.0219.0099-.0323.0133-.0023-.0071-.0043-.015-.0063-.0221.0105-.0045.021-.0091.0321-.0144.0022.007.0036.0161.0065.0232h0Zm.0776.1106c-.0204.0133-.0637.0357-.1318.0657-.0039.002-.0119.0105-.0215.0258-.0099.0156-.0176.0286-.0252.0377-.017.008-.0899.0394-.2192.0953-.0093.0039-.0292.0008-.0618-.0108-.0331-.0116-.0532-.0159-.0609-.0125-.0133.0063-.0227.0116-.0281.0196-.0051.0079-.0099.0124-.0138.0153-.0086-.0286-.0162-.0561-.0233-.0848.0513-.0204.0814-.0283.0884-.0204.0202-.0482.0329-.0652.0363-.0499.0301.0213.0584.0258.0848.0142.0079-.0034.015-.0082.0195-.0167.0046-.0085.0145-.0139.0267-.0199.0085-.0039.0295-.0048.0638-.0062.0334-.0011.0541-.0031.0638-.0071.0079-.0031.0107-.0082.0085-.0159-.0026-.0082.0014-.0136.009-.0181-.0297.0136.0321.0091.1848-.0113h0Zm-.4952.0107c-.0028-.0073-.0048-.0144-.0071-.0224-.0153.0063-.03.0134-.0447.0199.0022.0068.0042.015.0062.0221.0147-.0062.03-.0133.0456-.0196h0Zm-.1576.1602c-.0329.015-.0652.0286-.0981.0419-.0014-.007-.0034-.015-.0056-.0224.0323-.0133.0652-.0277.0975-.0408.002.0071.0034.015.0062.0213h0Zm-.208.1488c-.0114.0045-.0224.0099-.0324.0133-.0019-.0071-.0039-.015-.0062-.0229.0108-.0037.0218-.0091.0329-.0136.0014.0082.0042.0153.0057.0232h0Zm-.0771-.0445c-.0196.0099-.04.0179-.0596.0258-.002-.0079-.0042-.0159-.0054-.0241.0193-.0079.0392-.0159.0587-.0241.0014.0082.0034.0162.0063.0224h0Zm.0181.0694c-.0286.0063-.0567.0125-.0839.0188-.002-.008-.0034-.0151-.0057-.0233.0275-.0062.0556-.0125.0834-.0178.0022.0073.0042.0153.0062.0223h0Zm-.7957.1693c-.0229.0099-.0453.0204-.0677.0303-.0023-.0071-.0037-.015-.0043-.0241.021-.0091.044-.0195.0672-.0292.0014.008.0034.015.0048.023h0Zm-1.5809-.4541c-.0158.0079-.0328.0158-.0482.0238-.0014-.008-.0028-.0159-.0042-.0238.0162-.0074.0323-.0153.0485-.0233.0014.008.002.015.0039.0233h0Zm-1.1367-.4743c-.0153.0083-.0314.0162-.0462.0224-.0022-.0071-.0036-.015-.0056-.0224.0153-.0079.0309-.0158.0462-.0221.0014.0071.0037.0142.0056.0221h0Zm2.6966,2.7128c-.0011.0062-.0011.0105-.0028.017-.0159.0008-.032.0034-.0482.0051-.0022-.0051-.0037-.0105-.0042-.015.019-.0034.0371-.0054.0552-.0071h0Zm2.0665-2.6966c-.0386,0-.1984.066-.4799.1908-.0079.0034-.036.0124-.0811.0266-.0465.0142-.0751.0244-.0876.0303-.0139.0066-.0567.0105-.1323.0151-.0015-.0046-.0029-.01-.0043-.0151-.0057.0142-.0113.0284-.0167.042-.0176-.0108-.0323-.0128-.0448-.0074.0167.0099.0187.0176.0054.0233-.0547.0235-.1077.0275-.1568.0116-.0499-.0162-.0856-.0275-.1066-.0366-.14.032-.2457.057-.3172.0757-.0099-.0008-.0181-.0045-.0238-.0062.0048-.0108.0097-.0221.0139-.0321.1247-.0365.2177-.0615.2804-.0756.1567-.0329.3543-.101.5896-.2041.0082-.0037.0309-.0108.066-.0205.0349-.0096.0581-.0167.0706-.0223.0252-.0111.0626-.0377.112-.0766.0496-.0388.0847-.0632.1051-.0711-.0246.0096-.0499.017-.0734.0195-.0261.0026-.0434.0068-.0519.0105-.0748.0337-.1332.0448-.1737.034.0062-.0079.0161-.0161.0278-.0212-.0117.0051-.0236.0051-.0349,0,.0176-.0377.0391-.0562.068-.0581.0525-.0105.08-.0179.08-.0179.0073-.0025.0147-.0125.0201-.0266.0051-.0136.0116-.021.0198-.025.0338-.0156.0462-.0366.0383-.0615-.0215.0224-.0519.0408-.0882.0578-.0127.006-.0221.008-.0272.0046-.0068-.0037-.0153-.0023-.028.0036-.0083.0037-.0221.0114-.0414.0258-.019.0142-.0329.0241-.0414.0275-.0791.0338-.1814.0536-.3076.0579.0051-.0139.0253-.0258.0604-.0346-.0966.0074-.1808.0232-.2534.0473-.0485-.0017-.0856-.0068-.1137-.0153-.0278-.0085-.0816.006-.1618.0394-.0122.0048-.0406.0088-.0848.0097-.0439.0008-.0748.0062-.091.0124-.0643.0204-.14.042-.2248.0615-.2627.0686-.4609.1211-.5918.1576.0328-.0258.0532-.0416.0623-.0445.0238-.0399.0315-.0586.0224-.0552.0267-.0108.1267-.0409.3005-.0882.2219-.0561.388-.0961.498-.1202.0547-.0224.0958-.0402.1262-.0524.0791-.017.1244-.0278.1372-.0332.0124-.0051.0334-.0102.0629-.0142.0286-.0039.0476-.007.0561-.0107.0085-.0034.0108-.0085.0085-.0159-.0028-.0088.0014-.0139.0097-.017.0127-.0051.0173-.0037.0156.0054-.0023.0105.0011.0122.0104.0088.0077-.0029.0159-.0117.0239-.023.0076-.0116.017-.0204.0243-.0232.0298-.0122.0896-.0309.1834-.0545.0939-.0235.1693-.049.2279-.0748.0528-.0233.1035-.0507.1506-.0836-.1129.0337-.2262.0686-.3413.1085-.1639.042-.2982.0686-.402.0777.0009-.0116.0091-.0204.0252-.0278-.2446.0695-.3557.099-.3299.0873-.0167-.0096-.0337-.0195-.051-.0303-.0825.0187-.1463.0312-.1919.0383-.1934.0669-.3362.125-.4289.172-.0179-.015-.0352-.0187-.0525-.0107-.0119.0053-.0153.0116-.0082.0195.0077.0091.0063.0162-.0022.0196-.0139.0062-.029.0054-.0468-.0009-.0184-.0062-.0318-.0071-.0408-.0034.0042-.002.0175.0034.0408.0168-.0309.0311-.0491.0481-.0533.0501-.051.0227-.1324.0479-.2418.0754-.0091.0448-.0156.0675-.0201.0698-.0658.0306-.106.0462-.1205.0462.0054-.0187.0068-.0312.0062-.0366-.0175.0079-.0351.0153-.0524.0232-.0204.0392-.0267.0562-.0176.0525-.0133.0062-.0218.0051-.0252-.0017-.0034-.0065-.013-.008-.0267-.0009-.0087.0046-.0371.0216-.0867.0533-.0505.0323-.0808.0502-.089.0544-.0139.0074-.0232-.0008-.0266-.0215.0637-.0524.1085-.0944.1366-.1244-.2262.0615-.4204.1264-.5817.1922-.0592.0294-.102.0501-.1295.0643.0184-.0099-.0335.0213-.1554.0927-.0547.0765-.0856.1173-.0952.121-.1023.0553-.1814.0998-.2361.131-.1015.0785-.1849.1412-.2506.1862-.089.061-.3229-1.0794-.3546-1.046-.0312.0332-.0494.0508-.0545.0536-.0045.0026-.0425.0309-.117.0836-.0752.0533-.1296.0882-.1599.1089-.0043-.0071-.0077-.0145-.0111-.0216-.0127.0678-.0759.1406-.1933.2274-.1703.1253-.2766.1942-.2894.2242-.1035.2478.2585,1.5307-.5672,1.887.0252-.009.0391-.0037.0405.017-.0187.0222-.0468.0383-.0825.0454.0216.0025.0542.0057.0973.0116.0442.0057.0756.0116.098.0133-.0005-.0053.0006.0159.0077.0604.0385-.0703.0615-.1236.0686-.1584.0057.0034.0156.0048.0272.0034.0128-.0012.0227,0,.0281.0036-.0601.116-.0987.1917-.114.2299-.0204.0117-.0317.0213-.0357.0275-.0295-.0158-.0519-.0212-.068-.0158-.0097.0365-.0335.0671-.0695.0927-.0368.026-.0623.0686-.0734.1264-.0567.0428-.1131.0757-.1689.0952-.01.0037-.0375-.002-.082-.0178-.0433-.0153-.0703-.0216-.0805-.0179-.0258.0105-.051.0241-.074.0448-.0408.0417-.0626.0853-.066.129.0091.1185.0096.1621.0014.1321.0082.03.0448.0569.1106.0782.0666.0215.1091.0275.1304.0196.0195-.0074.0484-.0392.0856-.0936.0377-.0561.0572-.089.0601-.1026.0243-.112.0657-.1791.121-.1984.0105-.0037.0173-.0023.0218.0054.004.0068.0108.0085.0204.0051.0513-.0179.1058-.0667.1667-.146.0071.0091.0105.0204.0139.0365.0238.0196.059.0312.1052.0358-.0357.0552-.0584.0961-.0689.121.0323-.017.0567-.0266.0737-.0258.0071.0374.0125.0527.0139.0669.0025.0196-.0068.0445-.0258.0587-.0329.0286-.0513.0589-.0533.0703,0,0,.0232.0331.0618.14.0181.023.0425.0289.072.0224.0091-.0023.019-.0127.028-.0295.0097-.0178.0185-.0278.0287-.0312.0241-.0082.0394-.0107.0456-.007.0077.1193.0196.21.0372.2732.0532.2299.0756.4116.0623.5463-.0623.1754-.1182.2973-.1675.3668-.0048.0241-.0068.0456-.0034.0615-.0133.009-.0434.07-.091.1783-.0473.1071-.0703.1771-.0661.2111.0074.0542.0406.074.0998.0559,0,0,.0264-.023.0825-.0712.0286.0179.0428.0295.0439.0349-.032.0729-.0544.1281-.0657.1664.0119.0116.0204.0198.0261.0232.0396-.0096.0603-.015.0603-.015-.0008.0054,0,.0105.0012.0159-.0278.0278-.0573.0437-.0868.0499-.0442.0669-.0779.1168-.1.1514.0116.0082.0167.0224.0195.0439.0757-.049.1171-.0386.1225.0354.0008.0108-.0003.0278-.0043.0511-.0036.0238-.0048.0408-.0042.0515.0499.0017.0876.0051.1128.0114-.0099.0091-.0139.0269-.0125.0527-.0051.0026-.0343.0224-.0876.0607-.049.1168-.0674.2092-.0504.2786.013.0536.0224.0777.0224.0777-.0414.1397-.0666.244-.0757.3107.0133.0368.0102.1201-.0077.2486-.0221.1584-.0323.2565-.0328.2931.009-.0196.0201-.0757.0328-.1659.0094-.0666.0267-.1173.0547-.1505.0006.0306.002.0615.0049.0919,0,.0053-.0145.0581-.0338.1578-.0119.0633-.0328.1185-.0697.1681-.0147.1829-.0207.3189-.0213.4057-.0062.0193-.0138.032-.0224.0354.019.0445.0281.0865.0219.1284-.0091.0604-.017.0882-.0176.0828.0006.0108.0057.0238.0128.0391.007.0159.0121.0286.0124.0394.0023.0712.0063.1335.0162.1834-.0014.0167.0096.0346.0306.0508-.0034-.0321-.002-.0528.0043-.0616.0127.0046.0209.0159.0238.0375.0028.0212-.0029.0456-.0145.0756.0326.0686.0595.1248.0768.1738.0034.0383.0071.0661.0099.0819.0247.0196.0477.0219.0686.0091.0142-.0088.0278-.0332.0406-.0706.0125-.0366.0173-.0669.0127-.0873-.0039-.0178-.0085-.0366-.0119-.0541-.0028-.0153-.0124-.0151-.0294.0017-.0165.0161-.0287.0266-.0358.032-.0343-.0088-.055-.0286-.0603-.0587-.0108-.0632-.0006-.1559.028-.2789.0252.0125.0428.0652.0519.1613.0162-.0099.0329-.0196.0496-.0303-.0026-.0216.0009-.0411.0113-.057.0049.0017.0077.0142.0105.0346.0485-.0009.0737.009.0766.0294-.0043-.0311-.0066-.0544-.0085-.0703.0119-.0073.0243-.0073.0362.0017.0043.0366.0083.0732.0134.1095.0136.0921.0272.1437.0323.1516.0414.0017.0737.0043.0947.0079-.0066-.049-.0148-.098-.0151-.1468-.0003-.0785.0176-.1264.0443-.1434.0085-.0054.0141-.0063.0175-.0037,0,0,.0074-.0034.0182-.0108.0073-.0048.0144-.0178.0204-.0346.0065-.0178.0113-.0269.0156-.0294.0286.0348.0425.0705.0425.1034.0034-.0028.0119-.0059.0244-.0079.0119-.0023.0198-.0048.0232-.0062.0071-.0857.0114-.1508.0148-.1945.0481-.0142.0813-.0266.0975-.0371,0,.0113.0028.0198.0096.0258.0074.0059.0096.0062.0094.0005-.0046-.0371-.0051-.0666-.0009-.0844.0181-.0474.0281-.0641.0286-.0499-.0005-.0142-.0005-.0409-.0028-.0749-.002-.0348-.0051-.0581-.0043-.0731.0069-.0882.0346-.203.0876-.3393-.0153-.0162-.0201-.042-.0062-.0782.0309-.0814.0624-.1472.0862-.199-.021.0314-.042.0411-.0632.0331.0275-.14.0666-.2902.1108-.449.2106-.7534.2942-1.1029.2942-1.0457,0-.0161-.0042-.0269-.0156-.032.1894-.1746.3028-.2665.3405-.2781,0,0-.0139-.0062-.042-.0196.0372-.017.1009-.0561.1885-.1176-.0204.0096-.0357.0116-.0476.0062.0315-.0294.0604-.0496.0868-.0623.0107-.0051.0189-.0088.0238-.0116.0008.0053.0008.0079.0008.0079-.0051.0074-.0099.0145-.0161.0241.0062-.0096.0136-.0184.0238-.0312.0113-.0139.0161-.0212.0153-.0266.0113.0062.0218.0116.0337.0167.2319-.1361.4062-.2407.5267-.3124.1196-.0714.208-.1301.2676-.1738.0056-.0036.0153-.0127.0289-.0303.0127-.017.0266-.028.0363-.0329.0099-.0051.0141-.0036.0124.0026s.0029.0062.0139.0017c.0156-.006.0516-.0363.1066-.0927.0522-.0533.0836-.091.0975-.112.0136-.021.0244-.0394.0309-.0535.0244.0062.0372.0087.0372.0087.0153-.007.0584-.0439.1287-.1102.0711-.0672.1301-.1126.178-.1335.0107-.0049.0992-.0233.2676-.0528.1678-.0294.2579-.0448.2673-.049.0249-.0108.0666-.0346.127-.0729.0292-.0252.0481-.0688.0552-.1292-.0462-.0037-.0734-.0116-.0833-.0241.0042-.0108.0091-.0204.0133-.032.0125-.0046.0252-.0108.038-.0162.0096.0071.021.0133.032.0207.0148-.0062.0346-.0122.061-.0179.0266-.0056.0434-.0099.0538-.0141.0199-.0083.0338-.0332.0434-.0715-.0034-.0099-.0093-.0269-.0181-.0516-.0085-.0243-.0153-.0419-.0182-.0527-.0847-.0553-.1885-.1015-.3115-.1406.0663-.034.1644-.064.2945-.0918.1789-.0295.2846-.0491.3212-.0579-.0099.0034-.0278.002-.0527-.0079-.0247-.0102-.0423-.013-.0519-.0091-.0148.0066-.0199.0114-.0162.0153.0046.004.0014.0086-.0082.0122-.0099.0043-.0255.0032-.0476-.0051-.021-.0079-.0377-.009-.0462-.0045-.0819.0054-.1542.0204-.218.0479.0099-.0042-.0819.0011-.2772.0153-.0029-.0116-.0071-.0241-.0108-.0366.0099-.0221.0247-.0365.0442-.0453.0201-.0091.0363-.0199.0485-.034.0125-.0142.0224-.0236.0329-.0275.0099-.004.038-.0071.0833-.0125.0451-.0054.0717-.0096.0819-.0142.0437-.0204.0596-.0482.0471-.0881-.0267-.0162-.0644-.0136-.1128.0062-.0102.004-.0204.0034-.0295-.0008-.0091-.0046-.0187-.0054-.0289-.0012-.0635.0278-.0788.0366-.0482.0295-.019-.0037-.0315-.0037-.0411,0,.03-.0632.0439-.1015.0419-.1114-.0258-.0125-.0518-.0241-.0757-.0366-.0048.008-.007.0145-.0104.0216-.017-.0091-.0338-.0187-.0491-.0292-.0147.0059-.0232.0068-.0246.0025.0379-.0453.0552-.0669.0552-.0669-.0558-.0669-.1159-.081-.1819-.0411-.0434-.0212-.0604-.0337-.0505-.0382-.0252.0062-.0425.0311-.0496.0776-.0074.0454-.0252.0774-.0533.0953-.0009-.0054-.0071-.0153-.0196-.0303-.0119-.0142-.0255-.0182-.0399-.0125-.0102.0039-.0128.009-.0085.0136.0034.0034-.0029.0088-.0168.015,0,0-.0127-.0082-.0408-.0244-.0068-.0533-.011-.0915-.0116-.1139-.0541-.0899-.1108-.1727-.1704-.2466-.0175-.0088-.0487-.0051-.0929.0144-.0151.0063-.0315.0162-.0508.0309-.0178.0139-.0292.0227-.0348.025-.0539.0241-.1387.0504-.2549.0793-.1165.0289-.2046.0562-.2642.0845.0771-.0249.1934-.0516.3501-.0808.14-.0278.2163-.0451.2259-.049.0091-.004.0145-.0108.0159-.017.0011-.0063.0068-.0108.0167-.0151.0253-.011.0533.0063.0834.0471-.0406.0856-.0567.1443-.0491.1738-.0581.0096-.1029.017-.1321.0258-.0051-.0179-.0093-.0358-.0136-.0533-.0657.0677-.1204.0944-.1632.0728-.0083.0125-.0173.0258-.025.0366-.0833-.0026-.1304-.0071-.1423-.0133.0196-.0091.0218-.0012.0048.0232-.0215.0275-.0368.0428-.0482.0471-.0048.0019-.0354.0085-.0924.0232-.0578.0147-.0918.025-.1017.0295-.0097.0042-.0389.0266-.0854.0641-.0467.0374-.0751.0595-.0856.064-.009.0043-.0218.0051-.0371.0011-.0139-.0039-.0295-.0042-.0445.0026-.0105.0045-.0147.0125-.0147.0249,0,.0117-.0066.0193-.0156.023-.0304.0133-.0539.0187-.0729.0153-.0042-.0028-.0068-.0062-.0105-.0108-.0901.0686-.1681.1211-.2333.1568-.2514.2066-.3892.3166-.4147.3288-.0192.0091-.0258.0054-.0187-.0088-.0028-.0107-.0065-.0215-.0085-.0312-.0161-.3994-.0235-.6298-.0337-.6913-.0094-.0579-.0216-.1052-.0391-.1418.1219-.1763.3656-.3804.7276-.6111-.0048-.0312-.0039-.0507,0-.0578.0119-.0054.0235-.0117.0372-.0179.3344-.1533.5161-.2344.5499-.2494.0141-.0117.0428-.0329.0876-.0641.0442-.0312.0703-.0476.0791-.0519.015-.0065.0504-.0198.1094-.0371.0586-.0173.0929-.0289.102-.0332.0139-.0065.0323-.0232.0519-.0516.0195-.0283.036-.045.0442-.049.0238-.0111.042-.0108.0544,0-.0073.0153-.0201.0275-.0382.0383-.019.0113-.0301.0207-.0338.0277.08-.0411.1409-.0686.1834-.081-.0221-.0136-.032-.0241-.0286-.0304.0213-.009.0422-.0178.0632-.0275.0077.0026.0162.0043.0244.006-.0071.0179-.0133.034-.0201.051.0158-.0187.0266-.0142.032.0116.0805-.0527.1415-.0759.1828-.0722.08-.0287.2177-.0749.4105-.1344.1933-.0601.2877-.0884.2877-.0884.0099-.0043.0099-.0105.0037-.0179-.0068-.0079-.0043-.0156.0091-.0213.0034-.0014.0113.0034.019.0179.0357-.0145.0652-.0278.087-.0374.0187-.0017.0425-.0048.072-.0091.028-.0037.0465-.0068.0561-.0105.0352-.0139.0601-.051.0734-.1088.0034.0107-.002.0192-.0156.0249-.0079.0034-.0292.0068-.062.0099-.0343.0032-.0556.006-.0647.0097-.0085.0037-.0552.0139-.1394.0295-.0839.0155-.1401.0286-.1667.0391-.123.0419-.2478.0839-.3725.1267-.1772.0595-.2976.0845-.3608.0728-.0034-.015-.0063-.0309-.0091-.0462.0062.008.0213.0074.0448-.0025.0142-.0063.0408-.0253.0828-.0581.0405-.0318.0651-.0491.0742-.0533.0131-.0063.0423-.0099.0868-.0125.0442-.0026.068.0034.0714.0196-.0162.0175-.0119.0275.0136.0275.0088-.0267.0218-.0434.0403-.0516.0405-.0179.0884-.0179.1403-.0009-.0295-.0215-.0301-.0383-.0029-.049-.0085.0037.0729-.0116.2472-.0462-.0139.0062-.0153-.0017-.0054-.0233.0125-.0054.0258-.0116.0391-.017.0482-.0193.0834-.0178.1044.008-.0049-.0205-.0006-.0335.0119-.0392.0139-.0059.0309-.0025.0547.0108-.0119-.0062-.0119-.0153,0-.0269.0538-.0383.0734-.0559.0601-.0505.0484-.0198.0961-.0312.1434-.034-.0088.0204-.013.0329-.0116.0383.0371-.0445.051-.0641.0428-.0607.013-.0051.0564-.0173.1309-.0346.0749-.0173.1163-.0286.1253-.0312,0,0,.0431-.0215.1301-.0649.0859-.0431.148-.0731.1857-.0893-.0249.0108-.0391.0199-.0419.0258-.0119-.0059-.0162-.0124-.0134-.0187.0715-.0496.1253-.0864.1605-.1131.0365.0071.0805-.0017.1358-.0266.0042-.002.0456-.0312.1227-.0893.0334-.015.0672-.0309.1009-.0459.0439-.0261.0706-.0491.0791-.0706h0Zm-2.5441,3.7947c-.0034.0117-.0057.0207-.0082.0306-.0176.008-.0366.0159-.0533.0241.021-.0178.0405-.0365.0615-.0547h0Zm-3.0671-1.3172c-.0346.0088-.0521,0-.0555-.0321-.0034-.0331.0119-.0606.0456-.0864.0006.0054.0028.0445.0099.1185h0Zm-.4717.227c.0057.0355-.0144.0618-.0615.0794-.0173.0065-.0357.0125-.0538.0187-.0233-.0133-.0358-.0241-.0372-.034-.0028-.0193-.0008-.0417.0063-.0658.0414-.015.0819-.0303.1241-.0456.0034.0252.0105.0411.0221.0473h0Zm.421.5131c-.0196.0037-.0292.0071-.0278.0133-.0065-.0417-.0014-.0748.0139-.0986.0099.0629.0139.0907.0139.0853h0Zm-.7263-.1015c-.0042.0017-.013.0133-.0252.0349-.0252-.0125-.0385-.0241-.04-.0349.0134.0116.0346.0116.0652,0h0Zm2.736,1.6033c-.0119.0045-.0215.0099-.0314.0144-.0014-.0079-.0014-.0153-.0014-.0232.0099-.0045.0218-.0105.0328-.0142-.0008.0071,0,.0153,0,.023h0Zm3.2446-4.8521c-.0023-.0071-.0043-.0144-.0065-.0221-.0173.0077-.0335.0139-.0502.0221.002.0071.004.0151.0062.0224.0167-.0062.0335-.0144.0505-.0224h0Zm-.417.0037c-.0686.0238-.1616.0496-.2801.0765-.1542.0188-.2732.0499-.3566.0908-.0082-.0046-.0167-.0097-.0249-.0151.0082-.0215.0076-.032-.0014-.034-.0043.002-.0082.0082-.0099.017-.002.0099-.01.0179-.0224.0233-.0085.0034-.0318.0093-.0709.0167-.0371.0076-.0627.0142-.0757.0196-.0859.0374-.1576.0615-.2163.0768.0377.0187.1344.0071.2911-.0312.0409.0116.0618.0159.0618.0159.0085-.0034.0241-.0128.0448-.0267.0236-.0153.0386-.0258.0462-.0295-.0496.0216.0862-.0079.4085-.0861.0352-.0108.0567.0096.0658.0569.0751-.032.1148-.049.119-.0507-.0306.0071-.0504-.0045-.0595-.0349-.004-.0141-.0054-.026-.0028-.032.0031-.0074.0036-.0133.0022-.0179.0272-.0124.0539-.024.0811-.0354h0Zm-.138.5618c-.1506.0652-.2659.1018-.3459.1131.0034.01.0029.0253-.0034.0437.1273-.0301.2177-.0578.2696-.0799.0468-.0199.0743-.0448.0797-.0769h0Zm.0527.1917c-.0182-.0145-.0389-.0185-.0604-.0088-.0085.0037-.0201.0229-.0354.0578.0215-.0091.0431-.0215.0635-.0349.0218-.0105.0323-.0141.0323-.0141h0Zm-.5576-.2486l.4581.2565c-.0054-.0026-.0111-.0062-.0176-.0096-.0167.0303-.032.0595-.0482.089.0057.0037.0111.0071.0167.0099.0162-.0295.0324-.059.0491-.0893l-.4581-.2565h0Zm-.0139.032c-.0238.0153-.049.032-.0737.0482-.002-.008-.0034-.0162-.0054-.0238.0244-.0153.0496-.0323.0734-.0485.002.0082.004.0162.0057.0241h0Zm-.5374-.2316c.0042.017-.0049.0275-.0267.0383.0352-.0159-.1043.026-.4215.1284.0652-.0349.2157-.0919.4482-.1667h0Zm-.3272.017c-.0343-.0008-.081.0125-.1434.0411.0357-.0249.0706-.0499.1063-.076.0224.0137.0352.0241.0371.0349h0Zm-.25.0553c-.0105.0221-.0221.0368-.0357.0425-.0088.004-.0244.004-.0468,0-.0232-.0037-.0391-.0028-.0476.0011-.0091.004-.0178.0128-.028.0258-.0094.0119-.0162.0187-.0205.0213-.0062-.0267.0009-.0541.019-.0853.0247,0,.0457-.0046.0638-.0125.0462.0187.0686.0283.0644.03.0105-.007.0209-.015.0314-.0229h0Zm-.2219.0587c-.0139.0294-.0156.0473-.0043.0535-.009.0043-.0241,0-.0453-.009-.0216-.0088-.0403-.0134-.0547-.0125.0343-.0096.0686-.0213.1043-.032h0Zm.7741.4685c-.0176.0357-.0399.0601-.0674.0723-.0406.0179-.0644.0116-.0715-.0195.0927-.0403.1372-.0582.1389-.0528h0Zm-.316.2495c-.038.0108-.072.0312-.101.0606-.0113-.0034-.0218-.0062-.0328-.0107-.0156.0294-.0204.0436-.0156.0408-.0278.0127-.0502.0261-.0686.0394-.0253-.0275-.0539-.0454-.0854-.0533-.0076.0034-.0147.0062-.0209.0088-.0091-.0045-.0176-.0088-.0253-.0142-.0391.04-.0714.0686-.1.0873-.0224-.0127-.0346-.0215-.0352-.0266.0482-.0162.0791-.0323.091-.0491.0323-.0428.055-.0666.0638-.0705.0094-.004.0266-.0063.0519-.0063.0244,0,.0422-.002.051-.0062.0145-.0065.0281-.0133.0428-.0196.0947.0187.1553.0267.1843.0196h0Zm.1644.9382c-.0516.0953-.0973.1514-.1364.1681.0335-.015-.0119-.0167-.1386-.0062.0153-.0295.0264-.0507.0335-.0658-.021-.0748-.0029-.1244.0547-.1496.0686-.0301.1255-.0312.1729-.008.0048.0213.009.0417.0139.0615h0Zm.2097.5789c-.0275.0116-.0541.0232-.0808.0337-.0011-.0071-.0034-.015-.0053-.0229.0263-.0108.053-.0224.0802-.0349.0022.0082.0037.0161.0059.0241h0Zm-.1142-.0961c.0014.0054.0017.0187.002.0408.0003.0233.0022.0394.0048.0499-.0153.0071-.0349.0008-.0621-.0159.0216-.0436.0406-.0686.0553-.0748h0Zm-1.1146-.076c-.0014.0063-.0034.0125-.004.019-.0141.0009-.0275.0009-.0408.0017.0014-.0062.0029-.0125.0043-.0195.0133.0008.0266,0,.0405-.0012h0Zm-2.4633.3359c.006.0465-.0065.0785-.0385.0981-.0156.0045-.0304.0079-.0457.0108-.0006-.0108-.0071-.0258-.021-.0445-.0127-.0179-.0224-.0338-.0243-.0491-.0015-.0105.0153-.0456.0496-.1051.0496.0303.0762.0615.0799.0898h0Zm1.9865,2.0464c-.0142.0053-.0275.0116-.0405.0178-.0009-.0079-.0009-.0153-.0009-.0232.0125-.0054.0267-.0125.04-.0179.0006.0071.0006.015.0014.0233h0Zm-.487.5051c-.028.032-.047.0516-.0575.055.0079-.0425.0142-.0862.0204-.1298.0051.0028.0111.0136.019.0337.0074.019.0133.0332.0181.0411h0Zm-.6494,1.4751c-.0187.0644-.0315.1097-.0385.1372-.0145.0083-.0202.0017-.0187-.0187.0019-.0258.0218-.066.0572-.1185h0Zm4.1854-6.9154c-.0029-.007-.0049-.0153-.0071-.0224-.0258.0054-.0533.0117-.08.0171.0032.007.0043.015.0071.0223.0267-.0053.0533-.0107.08-.017h0Zm7.5016,5.6319c-.0219-.0054-.044.0111-.0658.0488.0054-.0054.0136-.0108.0247-.0162.011-.0054.0246-.0164.0411-.0326h0Zm1.887.3651c-.0054.0111-.0108.0247-.0162.0408-.0221,0-.0385.0054-.0496.0162-.0054.0595-.0164.1001-.0328.1216-.0165.0218-.0468.0462-.0908.0731h-.0328c-.0111,0-.0233-.0054-.0372-.0161-.0136-.0108-.0261-.0162-.0371-.0162-.0054,0-.0162.004-.0329.0122-.0164.0079-.0272.0147-.0329.0201h-.1153c-.0604.0108-.0851.0162-.074.0162-.0493.011-.099.038-.1483.0813-.0056-.0053-.0124-.0121-.0207-.0204-.0082-.0079-.0124-.0147-.0124-.0201-.0165.0108-.0287.0201-.0369.0284-.0085.0082-.0207.015-.0371.0201-.0111.0218-.0275.057-.0493.1057-.0168.0216-.0275.0323-.0332.0323h-.0329c0-.0541-.0193-.0757-.0575-.0649-.0057-.0108-.0029-.0244.0082-.0405,0-.0162-.0111-.027-.0329-.0326v-.0241c0-.0165-.0057-.0244-.0167-.0244-.0108,0-.0315.0026-.0615.0079-.0304.0054-.0482.0083-.0536.0083-.0057,0-.0153-.0029-.0289-.0083-.0139-.0053-.0236-.0079-.0289-.0079.011-.0218-.0029-.0487-.0411-.0813,0-.0216.011-.0377.0328-.0488l-.0246-.0241c-.0111.0054-.0261.0108-.0454.0162-.0193.0053-.0343.0107-.0453.0161.0056-.038.0056-.0567,0-.0567l-.0247.0244h-.0575c.0218-.0218.0575-.0624.1068-.1219v-.0244c.0057-.0054,0-.0082-.0164-.0082-.0054,0-.019.0111-.0411.0326.0054-.0054-.0165-.0326-.0658-.0811.0275-.0269.0411-.0459.0411-.0567,0-.0107-.0028-.0189-.0082-.0246-.0054-.0054-.0082-.0216-.0082-.0488,0-.0051-.0057-.0107-.0165-.0158,0,0-.0082.0025-.0246.0079h-.0332c.0165-.0485.0303-.0731.0414-.0731.0108,0,.015.0028.0122.0082s.0014.0082.0125.0082c.0054,0,.0164-.019.0328-.057-.0164-.0107-.0382-.0161-.0657-.0161.0218-.0216.03-.0377.0246-.0488.0219.0054.0329.0082.0329.0082.0165,0,.0494-.0161.099-.0487h.0411c0,.0054.0025.0082.0082.0082-.0057,0,.0357-.0111.1236-.0326-.0221.0057-.055.0164-.099.0326.0054.0108.0111.0162.0168.0162.0326,0,.0768-.0108.1315-.0324.0275-.0164.0686-.0408.1236-.0731h-.0082c-.0111-.0054-.0275-.0054-.0494,0-.0221.0054-.0331.0082-.0331.0082-.0108,0-.0136-.0028-.0082-.0082.0056-.0054.0028-.0082-.008-.0082h-.0414c.0715-.0054.1866-.0216.3459-.0485.011-.0057.0357-.0272.0742-.0652.0165,0,.0329-.0051.0496-.0161.0162.0487.0411.0731.074.0731.0054,0,.0218-.0068.0493-.0204.0275-.0133.044-.0201.0496-.0201.0111,0,.0205.0053.0287.0161s.0153.0162.0207.0162c.011,0,.0164-.0054.0164-.0162.0054.0054.0139.0136.0247.0244,0,0,.0068-.0043.0207-.0122.0136-.0082.0232-.0176.0286-.0283,0,.0053.0057.0189.0167.0405.0108.0215.0108.0323,0,.0323.0054.0054.0303.0298.074.0731-.0108,0-.0082,0,.0082,0,0,0,.0111-.0107.0332-.0323.0218.0377.0329.0567.0329.0567-.0054,0,.0054-.0025.0329-.0082.0053.0108.0028.0244-.0083.0405.0054.0165.0165.0272.0329.0326.0111-.011.0082-.0243-.0082-.0405h.0414c0,.0269.0054.0567.0164.0893-.0221,0-.0414.0054-.0578.0161.0275.0216.0371.0324.0289.0324s.0068.0028.0454.0082c-.0165.0108-.0358.0272-.0579.0487.0057.0272.0029.0596-.0082.0975.0057.0108.0082.0241.0082.0406,0,.0051-.0054.0161-.0164.0323.0164.0272.0329.0405.0493.0405-.0054,0,.0057-.0025.0329-.0082h0Zm-1.7303-.4785l-.0331.0162v-.0162l.0246-.0082.0085.0082h0Zm.6259-.1273l-.0082-.0189-.0329.0297.0082.019.0329-.0298h0Zm-4.7035.2163v-.0241h-.1236v.0241h.1236Zm1.8204.6495v-.0244h-.0411v.0244h.0411Zm.0578-.0162h-.0578v-.0244h.0578v.0244h0Zm.2798-.0893v-.0244h-.0493v.0244h.0493Zm.6426-.7954v-.0244l-.0657.0162v.0244l.0657-.0162h0Zm1.0874-1.0956l-.0082-.0244-.0329.0162v.0244l.0411-.0162h0Zm-2.9078.4544h-.0493c0-.0054-.0057-.0162-.0165-.0326.0437,0,.0658.0111.0658.0326h0Zm3.1876.625c-.055.0108-.1347.0324-.239.065-.055.0053-.1346.0161-.2389.0323-.0933.038-.239.0921-.4366.1624-.1701.0541-.3075.0865-.4119.0972-.1647.0216-.3568.0652-.5765.1299-.1979.0651-.3983.1272-.6015.1868-.0054.0161-.019.0297-.0411.0405-.0219.0108-.0633.0215-.1236.0323h-.0165c-.0054.0057-.0107.0111-.0164.0164.0275.0108.0632.0162.1071.0162.0054,0,.0647-.0162.1772-.0485.1125-.0326.203-.0544.2718-.0652.0684-.0107.1798-.0323.3337-.0649.0108,0,.0164.0136.0164.0408-.0164.0159-.0496.0377-.0989.0647-.2143.1083-.3708.1624-.4694.1624-.0165,0-.0236-.0028-.0207-.0079.0028-.0057-.0014-.0083-.0125-.0083-.0108,0-.0275.0083-.0493.0244-.0221.0162-.0383.0244-.0493.0244-.1486.0487-.3793.119-.692.2109-.11.0272-.2883.0867-.5354.1786-.2197.081-.3351.1219-.3461.1219-.0111,0-.0165-.0029-.0165-.0083,0-.0053-.0054-.0082-.0164-.0082-.11,0-.2415.0434-.3955.1298-.011.0273-.0357.0624-.0742.1058,0,0-.0437.0161-.1316.0487.0054-.011.0083-.0218.0083-.0326-.0329-.0161-.0661-.0243-.099-.0243-.0221,0-.0328.0136-.0328.0405l-.0165-.0162c-.0167-.0269-.0496-.0405-.0989-.0405-.0165,0-.0357.0298-.0578.0893,0-.0434-.0054-.0731-.0165-.0893h-.0657c-.0111.0323-.0222.0621-.0329.0893-.0165.0434-.0496.0649-.099.0649-.066,0-.0989-.0459-.0989-.138-.0385.0053-.0932-.0054-.1647-.0324-.0221.027-.0317.0689-.0286.1256.0025.0567-.0125.1015-.0456.1341-.0108-.0054-.0287-.0244-.0533-.057-.025-.0323-.0428-.0487-.0536-.0487-.0111,0-.0179.0028-.0207.0082-.0026.0054-.0096.0082-.0204.0082-.0386,0-.0607-.0272-.0661-.0811-.011-.0379-.011-.0949,0-.1706.0054-.0865.0083-.1298.0083-.1298,0-.0054-.0054-.0162-.0165-.0324-.011-.0164-.0164-.0297-.0164-.0408,0-.0054.011-.0297.0329-.0728.011-.0326.0082-.0624-.0083-.0893-.0221-.0054-.0453-.0122-.07-.0204-.0246-.0082-.0371-.023-.0371-.0445,0-.0108.0468-.0516.14-.1219.0057-.0811.0111-.2084.0165-.3816.0056-.0215.0328-.2678.0824-.7384.0386-.4059.0576-.7197.0576-.9414l.1318-2.6866c0-.2651.0386-.4598.1154-.5843h.0493c.011.0108.0167.027.0167.0485,0,.0111-.0057.0272-.0167.0488-.0108.0218-.0193.0351-.0247.0405-.0275.1191-.0411.203-.0411.2517,0,.038.0026.0624.0083.0731.0164-.0107.0274-.0326.0328-.0649,0-.0541.0029-.0813.0083-.0813.011-.0431.0385-.112.0824-.2069.044-.0944.0658-.1475.0658-.1582,0-.0108-.0054-.0244-.0164-.0406-.0111-.0161-.0165-.0297-.0165-.0408-.0275-.0215-.0578-.0513-.0904-.089-.0167.0054-.0332.008-.0496.008-.0439,0-.085-.0202-.1236-.0607-.0383-.0405-.0575-.0774-.0575-.1097,0-.0216.0204-.0527.0618-.0933.0411-.0405.0782-.0609.1111-.0609.0275,0,.0521.0161.0742.0487,0,0,.019.0406.0576.1219.0275.0539.0604.0837.0989.089.0493.065.0743.0976.0743.0976.0054,0,.0079-.0083.0079-.0244,0,.0107.0068.019.0207.0244.0136.0053.0329.015.0576.0283.0249.0136.0425.0201.0538.0201.0272,0,.0547-.0161.0822-.0484.0111.0107.0411.0269.0904.0484l.0332-.0241c0,.0216.0026.0352.0082.0406l.0247-.0244c.0385.0326.055.0623.0496.0893.0272.0161.0629.0513.1069.1054.0439.0542.1071.1435.1896.2679.0054.0108.0218.0785.0493.203-.011.3138-.011.4762,0,.487l-.14,1.7285c0,.563-.0411.9686-.1236,1.2178.0054.0215.0054.0485,0,.0811-.0054.0107-.0164.024-.0329.0405-.011.0649-.0468.1596-.1071.284v.0732h.0742c.0604,0,.1151-.0326.1644-.0976.0057,0,.025.0137.0579.0406h.1318c.011.0161.0082.0326-.0082.0487.0053.0162.0218.038.0493.0649-.0658-.0161-.1454-.0028-.239.0406,0,.0054-.0025.0122-.0079.0204-.0057.0079-.0082.0122-.0082.0122.0161.0161.0326.0241.0493.0241.0164,0,.0357-.0162.0575-.0485.0332,0,.0825-.0082.1483-.0244.066-.0161.1043-.0244.1154-.0244.011,0,.026.0029.0453.0083s.0343.0079.0454.0079c-.055,0,.1783-.0785.7001-.2353.0879-.0161.2308-.0405.4283-.0731.1318-.0323.2665-.0649.4037-.0972.1868-.038.3265-.0516.4201-.0409v.0247c-.0332.0323-.1072.0595-.2225.0811-.1426.0323-.2305.0567-.2634.0728-.0989.0216-.2389.057-.4204.1058-.0218.0161-.0575.0459-.1068.0893.0108.0107.0218.0161.0329.0161.0107,0,.1082-.0229.2925-.0689.184-.0462.284-.0691.3005-.0691-.0054,0,0,.0082.0164.0243.0275-.0269.0522-.0405.0743-.0405,0,0,.0082.0082.0246.0244.0165-.0108.0411-.0269.0743-.0488.1315-.0326.2004-.0487.2058-.0487.0111,0,.0193.0054.0247.0161.0054.0108.0136.0165.0246.0165.0111,0,.1182-.019.3215-.057.0439-.0108.0657-.0241.0657-.0405.0111.0053.0329.0082.0661.0082-.0275,0,.1315-.0298.4776-.0893-.1043.0487-.2143.0785-.3294.0893-.0167.0161-.0192.0323-.0085.0487.0111-.0107.0168-.0218.0168-.0326.0493,0,.0796.0054.0904.0162.1264-.0431.2939-.0678.5026-.0729.0328,0,.0893-.0096.1689-.0286.0797-.019.125-.0283.1358-.0283.011,0,.0221.0025.0329.0082.011.0054.0249.0082.0414.0082.011,0,.0178-.0042.0204-.0122.0028-.0082.0096-.0125.0207-.0125h.0907c0-.0107-.0111.0057-.0332.0488-.5051.0867-.8592.1707-1.0624.2517h.0082c.0493-.0054.1372-.0218.2636-.0487.1262-.027.1948-.0406.2058-.0406.0111,0,.0235.0029.0372.0083.0136.0053.0232.0079.0286.0079-.0987.0164-.1837.0354-.2551.057.0493.0215.066.0323.0493.0323.0275,0,.3075-.0406.8402-.1216,0,.0215.0054.038.0167.0487-.0882.0216-.2197.0567-.3954.1055.0218.0215.0657.0161.1315-.0165l.0332.0326c.0822-.0433.1811-.062.2965-.0567h.0907Zm-1.0871-1.2336h-.0247l-.0164.0323.0164.0082.0247-.0405h0Zm-3.9379-3.4656v-.0488c-.0057-.0108-.0221-.0541-.0496-.1298-.0165-.0434-.0493-.0703-.0987-.0814,0,.0054-.0096.019-.0289.0408-.0192.0216-.0289.0485-.0289.0811,0,.0865.0221.1298.0658.1298.0113,0,.0167-.0028.0167-.0082s.0082-.0082.0247-.0082c.011,0,.0192.0071.0246.0204.0054.0136.0165.0201.0329.0201.0111,0,.0207-.0025.0289-.0079s.0125-.0079.0125-.0079h0Zm3.9379,3.3355h-.0247l-.0164.0731h.0246l.0165-.0731h0Zm-4.2922-3.7741h-.1072v-.0566c.0167-.0216.0468-.0326.0907-.0326,0,0,.0029.011.0082.0326.0054.0215.0083.0405.0083.0566h0Zm5.6925,5.0809h-.0986v-.0244h.0986v.0244h0Zm-.9802-1.0877c-.044-.0215-.0658-.0351-.0658-.0405,0,.0054-.0028.0136-.0082.0244-.0057.0107-.0082.0161-.0082.0161h.0822Zm.4694.057s-.0218.0082-.0658.0244c-.0275.0323-.0768.0757-.1482.1298-.11.0703-.184.1054-.2223.1054-.011,0-.036-.0133-.0742-.0405.0439-.0323.1153-.0785.214-.138l-.0493-.0406c.011-.0054.0578-.0161.14-.0323.055-.0164.0933-.0434.1154-.0813.0054-.0162.0246-.027.0575-.0324,0,.0054-.0079.0162-.0246.0324.0056.0107.0167.0229.0331.0365.0162.0136.0244.0258.0244.0366h0Zm-.2222-.146h-.0247l-.0164.0323.0246.0082.0165-.0405h0Zm-.2064.1947l-.0332.0244-.0243-.0161v.0487c.0382,0,.0575-.019.0575-.057h0Zm-4.0694-4.0257h-.0989v-.0893l.0496-.0488h.0493v.1381h0Zm.7166.3328c0-.0162-.0179-.0474-.0536-.0933-.0357-.0462-.07-.0692-.1029-.0692-.066,0-.0989.0406-.0989.1219,0,.0162.0221.0567.066.1216.044.065.0822.0976.1151.0976.0167,0,.0303-.0083.0414-.0244-.0221-.0216-.0414-.0406-.0575-.057.0603-.0323.0904-.0646.0904-.0972h0Zm-3.212,5.0238c-.0164.0162-.03.0272-.0411.0326-.011.0054-.0192.0108-.0246.0162.0218-.0377.0439-.0542.0657-.0488h0Zm.7901.3651c-.0054.0111-.0108.0247-.0165.0408-.0218,0-.0383.0054-.0493.0162-.0057.0595-.0164.1001-.0332.1216-.0161.0218-.0465.0462-.0904.0731h-.0329c-.011,0-.0232-.0054-.0371-.0161-.0136-.0108-.0261-.0162-.0371-.0162-.0054,0-.0165.004-.0329.0122-.0165.0079-.0275.0147-.0329.0201h-.1154c-.0604.0108-.085.0162-.074.0162-.0496.011-.0989.038-.1485.0813-.0054-.0053-.0122-.0121-.0204-.0204-.0082-.0079-.0125-.0147-.0125-.0201-.0164.0108-.0286.0201-.0371.0284-.0082.0082-.0204.015-.0369.0201-.011.0218-.0275.057-.0493.1057-.0167.0216-.0278.0323-.0332.0323h-.0328c0-.0541-.0193-.0757-.0579-.0649-.0053-.0108-.0025-.0244.0083-.0405,0-.0162-.0108-.027-.0329-.0326v-.0241c0-.0165-.0054-.0244-.0165-.0244-.0107,0-.0314.0026-.0618.0079-.03.0054-.0479.0083-.0533.0083-.0056,0-.0153-.0029-.0291-.0083-.0137-.0053-.0233-.0079-.0287-.0079.0111-.0218-.0028-.0487-.0411-.0813,0-.0216.0108-.0377.0329-.0488l-.0247-.0241c-.011.0054-.026.0108-.0453.0162-.0193.0053-.0343.0107-.0454.0161.0057-.038.0057-.0567,0-.0567l-.0246.0244h-.0579c.0222-.0218.0579-.0624.1072-.1219v-.0244c.0054-.0054,0-.0082-.0164-.0082-.0057,0-.019.0111-.0412.0326.0054-.0054-.0164-.0326-.066-.0811.0275-.0269.0414-.0459.0414-.0567,0-.0107-.0028-.0189-.0082-.0246-.0057-.0054-.0085-.0216-.0085-.0488,0-.0051-.0054-.0107-.0165-.0158,0,0-.0082.0025-.0246.0079h-.0329c.0164-.0485.03-.0731.0411-.0731.011,0,.0153.0028.0125.0082-.0029.0054.0014.0082.0121.0082.0057,0,.0168-.019.0332-.057-.0164-.0107-.0385-.0161-.066-.0161.0221-.0216.0303-.0377.0246-.0488.0221.0054.0332.0082.0332.0082.0164,0,.0493-.0161.0986-.0487h.0414c0,.0054.0026.0082.0082.0082-.0056,0,.0358-.0111.1236-.0326-.0221.0057-.055.0164-.0989.0326.0054.0108.0111.0162.0164.0162.0329,0,.0771-.0108.1319-.0324.0274-.0164.0686-.0408.1235-.0731h-.0082c-.011-.0054-.0275-.0054-.0493,0-.0221.0054-.0332.0082-.0332.0082-.0107,0-.0136-.0028-.0082-.0082.0057-.0054.0028-.0082-.0082-.0082h-.0411c.0711-.0054.1865-.0216.3458-.0485.0111-.0057.0357-.0272.0743-.0652.0164,0,.0329-.0051.0493-.0161.0165.0487.0414.0731.0743.0731.0054,0,.0218-.0068.0493-.0204.0275-.0133.0439-.0201.0493-.0201.0111,0,.0207.0053.0289.0161.0083.0108.0153.0162.0207.0162.0111,0,.0165-.0054.0165-.0162.0054.0054.0136.0136.0246.0244,0,0,.0068-.0043.0207-.0122.0136-.0082.0233-.0176.0287-.0283,0,.0053.0056.0189.0164.0405.0111.0215.0111.0323,0,.0323.0057.0054.0303.0298.0743.0731-.0111,0-.0083,0,.0082,0,0,0,.011-.0107.0329-.0323.0221.0377.0328.0567.0328.0567-.0053,0,.0057-.0025.0329-.0082.0057.0108.0031.0244-.0079.0405.0054.0165.0164.0272.0329.0326.011-.011.0082-.0243-.0082-.0405h.0411c0,.0269.0053.0567.0164.0893-.0218,0-.0411.0054-.0575.0161.0274.0216.0371.0324.0289.0324-.0083,0,.0068.0028.045.0082-.0164.0108-.0357.0272-.0575.0487.0057.0272.0028.0596-.0082.0975.0054.0108.0082.0241.0082.0406,0,.0051-.0057.0161-.0164.0323.0164.0272.0328.0405.0493.0405-.0054,0,.0056-.0025.0329-.0082h0Zm-.6336-.4785l-.0082-.0082-.0247.0082v.0162l.0329-.0162h0Zm.6262-.1273l-.0085-.0189-.0329.0297.0085.019.0329-.0298h0Zm12.1501-5.197c-.0221.0488-.0467.0729-.0742.0729-.0111,0-.0247-.0026-.0411-.0083-.0165-.0051-.0275-.0079-.0329-.0079v-.0488c.0164-.0215.0357-.0323.0575-.0323.0108,0,.0261.004.0454.0122.0193.008.0343.0122.0453.0122h0Zm-.2883-.1542l-.0167.0326-.0164-.0082.0164-.0326.0167.0082h0Zm-.0249.0649c0,.0108-.0025.0272-.0082.0488-.0054.0215-.0111.0348-.0165.0405,0-.0057-.0025-.0164-.0082-.0326-.0054-.0161-.0082-.0244-.0082-.0244.0275,0,.0411-.0107.0411-.0323h0Zm-.7906-.3895s-.0139.027-.0414.0811c-.0986,0-.1372-.0028-.1153-.0082v-.0405c0-.065.0249-.0976.0742-.0976.055,0,.0825.0219.0825.0652h0Zm.6259.8847l-.0164.0323-.0165-.0082.0165-.0323.0164.0082h0Zm-2.7349-.9255h-.0246v-.0485h.0246v.0485h0Zm0,.1219h-.0246v-.0326h.0246v.0326h0Zm-.0411.0729h-.0164v-.0324h.0164v.0324h0Zm-.1233.0164h-.0167l-.0164-.0326.0164-.0079.0167.0405h0Zm.0822.0972c-.0056,0-.0164.0029-.0328.0082h-.025c0-.0053.0057-.0175.0165-.0365.011-.019.0192-.0337.0249-.0445l.0164.0728h0Zm-.1811-.1216h-.0414v-.0161h.0414v.0161h0Zm.0408.1137c0,.0054-.0025.0122-.0079.0201-.0057.0082-.0082.015-.0082.0204,0-.0054-.0111-.019-.0332-.0405h.0493Zm-.3376.0079c-.0164,0-.0411-.0054-.074-.0161.0054-.0054.0151-.0204.0287-.0448.0139-.0241.0235-.042.0289-.0527l.0164.1136h0Zm1.6311,1.7045l-.0165.0082-.0082-.0161.0165-.0165.0082.0244h0Zm-1.8865-1.6396h-.0246l-.0165-.0649h.0247l.0164.0649h0Zm1.7711,1.7938l-.0575.057-.0165-.0165.0576-.0567.0164.0162h0Zm-1.6968-.8442h-.0247v-.0323h.0247v.0323h0Zm4.0691-.6168c-.0054,0-.0122.0043-.0204.0122-.0082.0082-.0179.0122-.0289.0122-.0111,0-.0371-.0147-.0782-.0445s-.0729-.0448-.0947-.0448c-.1154,0-.2115.0513-.2883.1542-.0167-.0161-.0221-.0244-.0167-.0244-.0108,0-.0275.0122-.0494.0366-.0218.0244-.0411.0394-.0575.0445.0054,0,.0164.0028.0329.0082.0164.0057.0275.0083.0329.0083,0-.0108.011-.0273.0329-.0488.0056.0162.0028.0323-.008.0488.0383-.0811.0904-.1273.1562-.1381-.0054.0216-.0244.0649-.0575.1298-.0329.0652-.0494.1165-.0494.1542,0,.0219.0026.0409.0083.057-.0332.0377-.0576.0595-.0743.0649-.0108-.0215-.0054-.0487.0167-.081l-.0332.0241c-.0657-.0324-.1182-.0488-.1564-.0488.011.0164.0164.0247.0164.0247-.0547.081-.0932.1431-.1151.1865-.121.1352-.2171.2381-.2885.3084-.0987.1352-.1783.2406-.2387.3166-.0714.0919-.1154.146-.1321.1622-.0275-.0216-.0383-.0324-.0329-.0324-.0054.0054-.0108.0083-.0164.0083,0-.0057.0042-.0151.0124-.0287.0083-.0133.0125-.0201.0125-.0201.0601-.0595.104-.1137.1315-.1624-.0053-.0216-.0025-.0352.0083-.0406.0496-.0272.0895-.0637.1196-.1097.03-.0459.0564-.0782.0782-.0972.0221-.019.0329-.0448.0329-.0771.0111,0,.0221.0054.0329.0162v-.0326c.066-.0973.1182-.1704.1565-.2189.0167-.0218.0303-.0354.0413-.0408.0383-.0487.0825-.104.1319-.1664.0493-.0621.0822-.123.0986-.1825.0057.0107.0082.019.0082.0244,0-.0108.0029-.0216.0082-.0326-.0164-.0324.0029-.0732.0579-.1216.011.0218.0192.0351.0246.0405v-.0162c.0879-.0541.1347-.0839.1401-.0893.0056-.0053.0082-.0107.0082-.0164,0,.0057-.0026.0082-.0082.0082-.0219-.0269-.0411-.0459-.0576-.057.0165-.0323.0193-.0484.0082-.0484-.0221-.027-.0331-.038-.0331-.0326.0056-.0054.0082-.0216.0082-.0488-.0383.0488-.0768.1083-.1151.1786-.011-.0108-.0221-.0162-.0332-.0162-.0107,0-.019.0043-.0243.0122-.0057.0082-.0139.0122-.025.0122-.0054,0-.0193-.0108-.0411-.0323.0493-.0921.0851-.1596.1072-.2032,0,0,.0246-.0241.0739-.0729.0494-.0487.0743-.0839.0743-.1054,0-.0377-.0275-.0567-.0825-.0567-.0275,0-.0564.0229-.0864.0688-.0301.046-.0562.0851-.0783.1177-.0164-.0326-.0385-.0488-.066-.0488-.0162,0-.0547.0151-.1151.0448-.0607.0298-.0933.0499-.0989.0607-.0604.0921-.1043.1596-.1318.2029-.0111-.0161-.0083-.0405.0082-.0731-.3569.4762-.6041.7982-.7413.9661-.0056.0161-.0082.0297-.0082.0405-.0496.0326-.0989.0864-.1485.1624-.0329.0431-.0576.0729-.074.0893.0275.0269.0385.0485.0331.0649,0,.0162-.0221.0445-.066.0851-.0439.0408-.0604.0717-.0496.0935-.1865.2163-.324.3841-.4116.5031l-.239-.9739c-.0549-.3734-.1071-.7061-.1564-.9984-.0057-.0215-.0029-.0377.0082-.0488-.0111-.0377-.0167-.0946-.0167-.1703-.0275,0-.0519-.0108-.074-.0326.011-.0162.019-.0295.0246-.0405-.0221.011-.0439.0272-.0657.0487h-.0332c-.0164-.0323-.0329-.0487-.0493-.0487-.0111,0-.0164.0028-.0164.0082s-.0057.0082-.0165.0082c-.0054,0-.0193-.0054-.0411-.0164.0329.0867.0136.1408-.0578.1624-.0329-.0326-.0547-.0485-.0658-.0485,0,.0269-.0082.0456-.0246.0564-.0661-.0323-.0936-.0487-.0825-.0487-.0111,0-.0207.0031-.0289.0082-.0083.0056-.0179.0082-.0287.0082-.0331,0-.0714-.0323-.1156-.0975-.0219-.0377-.0437-.0757-.0658-.1134-.0054.0054-.0108.0176-.0164.0363-.0054.019-.0247.0286-.0579.0286.0111.0595.0193.1055.025.1378-.0332.0164-.055.0326-.0658.0487-.0221.038-.036.0703-.0414.0975-.0054-.0107-.0082-.0189-.0082-.0243.0111-.0219.0207-.0474.0289-.0771.0082-.0298.0261-.0448.0533-.0448-.0218-.0159-.0326-.0298-.0326-.0406-.066.0057-.11.0057-.1318,0-.0221.0165-.0385.0355-.0496.057-.0054-.038-.0082-.0649-.0082-.0811,0,.0162-.0111.0241-.0329.0241v.1786c-.0057.0703-.0082.1216-.0082.1542-.0057,0-.0167-.0079-.0332-.0243.0057-.0054.0057-.0621,0-.1704-.0054,0-.0164.0054-.0329.0161.0221.0488.0304.0922.0247.1302-.0164,0-.0301.0051-.0411.0158.0218.0219.0385.0355.0493.0409.0165.0484.0275.0972.0332.1459.0108.1409.0164.2112.0164.2112-.0056.0269-.011.0485-.0164.0649.0108.0488.0164.0729.0164.0729h-.0246c-.0222.0218-.0332.0433-.0332.0649h.0578c0-.0054.0026-.0133.0082-.0244.0383.0544.0548.1381.0494.2517-.0054-.0054-.0083-.019-.0083-.0405.055.1624.0933.284.1154.3654-.0054.0161.0082.0782.0411.1865.0386.1894.0661.3302.0825.4221.0054,0,.0111.0025.0164.0082-.011.0108-.0053.0703.0165.1786.0439.1729.0796.3084.1071.4056.0275.1624.0522.2679.0743.3167.0272.0703.0493.1108.0658.1218,0,.0051-.004.0134-.0125.0241-.0082.0108-.0094.019-.004.0244.0604.1675.0905.2651.0905.2923,0-.0649-.0658.1919-.1976.771-.0111.0918-.0165.1624-.0165.2109-.0218.1137-.0331.1976-.0331.2517.0275-.0215.0414-.0162.0414.0162-.0054.0056-.0151.0107-.029.0164-.0136.0054-.0232.0108-.0286.0162.0329.0107.0468.0243.0411.0405-.011.0108-.0218.0162-.0331.0162.0113,0,.0167.0053.0167.0164-.0111.0431-.0167.0728-.0167.0893.0167-.0111.0274-.0139.0331-.0082-.0057.0053-.0096.0107-.0125.0161-.0028.0054-.0039.0108-.0039.0162-.0111-.0054-.0221-.0082-.0329-.0082.0162.0867.0218.1544.0162.2032-.0054.0159-.008.0241-.008.0241.0108.0164.0162.0298.0162.0405,0,.0706-.0082.1248-.0244.1625l.0493-.0406.0165.0567c-.0054.0165-.0151.0326-.029.0488-.0136.0164-.0206.0272-.0206.0326.0167,0,.0221.0107.0167.0323-.0111.011-.0167.0218-.0167.0326.0056,0,.0113.0025.0167.0079,0-.0323-.0085.0326-.0247.1948.0054.011.0026.1272-.0082.3489.0383,0,.055.0111.0493.0326-.0218.0865-.0249.165-.0082.2353.0218-.0216.0383-.027.0493-.0162v.1137c.0054.0595.0111.0975.0165.1137.0221.0379.0303.0649.0249.081.0218.0054.0272.0272.0164.0649.0108,0,.019.0029.0244.0083-.0054.0054-.0161.0082-.0326.0082.0326.146.0536.2528.0615.3206.0083.0674.0593.1205.1525.1582-.0439-.0703-.0632-.1219-.0575-.1542-.0111-.0162-.0221-.0244-.0332-.0244-.0164-.0649-.0246-.1109-.0246-.1381-.0165-.0215-.0275-.0431-.0329-.0649,0,0,.0028-.0161.0082-.0487-.0221-.065-.0329-.1134-.0329-.146-.0164-.0542-.0303-.0947-.0411-.1216-.0167-.0868-.0249-.1732-.0249-.26,0-.0269-.0026-.0635-.0082-.1094-.0054-.0459-.0083-.0717-.0083-.0771,0-.076.0043-.1258.0125-.1502s.015-.0391.0207-.0448c.0108.038.019.0703.0247.0975.0054.157.0082.2435.0082.2597.0329.2004.0575.3492.074.4464.011.0108.0192.019.0246.0244.0168.0975.0304.1596.0414.1868-.0057.0323-.0057.0595,0,.0811.0493.0921.0797.1624.0904.2109.0771.0759.1401.1326.1897.1706v-.0488l-.0825-.1298c0-.0108.0054-.0218.0164-.0326.0715.0703.1208.1273.1483.1704.0275.011.0468.019.0578.0244.0218.0433.0411.0756.0576.0975-.0275-.0649-.0137-.1219.0413-.1704.0876.0865.1508.1514.1894.1948-.0332-.0976-.0493-.1543-.0493-.1704l.0079-.0082c-.0054.0164-.0136-.0244-.0244-.1216.0054-.0111.0054-.0244,0-.0406-.0385-.0433-.0578-.0706-.0578-.0813,0-.0216.0028-.027.0082-.0162.0329.0269.0496.0459.0496.0567.0547.1137.0822.1707.0822.1707,0,.0595.0111.1298.0329.2109-.0164-.0703-.0218-.1219-.0164-.1543h.0164c.044.1029.0686.1625.074.1786l.0167-.0079c-.0331-.1083-.0604-.1896-.0825-.2438,0-.0757.0029-.1324.0083-.1703-.0715-.1514-.1072-.2356-.1072-.2518,0,.0054-.0025.0083-.0079.0083-.0057-.0054-.0085-.0137-.0085-.0244.0054-.0054.011-.0148.0164-.0284.0057-.0136.0139-.0204.025-.0204.0547.1029.0822.1894.0822.26.0221,0,.0385.0025.0493.0079-.0768-.2543-.1126-.4246-.1069-.5114.0054-.0107,0-.0323-.0164-.0649-.0167-.0323-.025-.0513-.025-.0567,0-.0649.0193-.1136.0579-.1462.0164.0164.0275.0243.0328.0243v.0326c0-.038-.0039-.1057-.0122-.2029-.0082-.0973-.0124-.1489-.0124-.1542,0-.0431.0054-.0919.0164-.146.0329.1783.044.3192.0329.4221.0442,0,.0632,0,.0578,0-.0167.0215-.0331.0377-.0493.0484.0218.0649.0326.1273.0326.1868l.0249-.0243c.0111.0433.0111.0892,0,.138.0111-.0164.0165-.0108.0165.0162,0,.0161-.0082.0243-.0247.0243-.0439-.1298-.0714-.2029-.0825-.2191,0,.0703.0029.0975.0083.0811-.0054.0108-.0165.0164-.0329.0164v.0729c.011-.0216.0193-.0406.0246-.0567.0332.1244.0494.2109.0494.2596.0164.0108.0275.019.0331.0244.0219.0377.0411.0919.0576.1624,0,0,.0082-.0028.0246-.0082h.0329c-.0493-.1678-.074-.4654-.074-.8929,0-.0215.0221-.4246.0661-1.2092.0107-.173.0465-.3572.1068-.552.0715-.2704.1265-.4705.165-.6006-.0057-.0269-.0057-.0675,0-.1216.0165-.0218.0301-.0272.0411-.0162,0,0-.0054-.0028-.0164-.0082-.0111-.0054-.0196-.0108-.0247-.0164.0383-.0647.0715-.1163.0989-.154.1701-.3299.4612-.7602.8731-1.2906.0987-.1298.1729-.2324.2223-.3084.0935-.1083.1621-.1865.206-.2353.1866-.2542.4091-.4977.6673-.7304,0-.0596.0411-.1948.1233-.406h0Zm-2.5781,6.6799c-.0167.0161-.0303.0241-.0411.0241v-.0323c-.0057-.0216-.0085-.0352-.0085-.0406.0057.0108.0221.0269.0496.0488h0Zm-.6755.2676c-.0054,0-.0082.0136-.0082.0408-.0111-.0216-.0275-.0488-.0496-.0811.0275,0,.0468.0133.0578.0403h0Zm3.1385-6.9231c-.0331.0164-.0496.0244-.0496.0244.0054,0-.0039-.0097-.0289-.0284-.0247-.019-.0615-.0229-.1111-.0121-.0111-.0054-.0193-.0108-.0247-.0162.0604-.0218.099-.0326.1154-.0326.0329,0,.0658.0218.0989.0649h0Zm-.9637-.1216h-.025v-.0405h.025v.0405h0Zm.6754.5516c-.0824.076-.1732.1707-.2721.2843.0386-.0759.0703-.1326.095-.1706.0246-.0377.0479-.0649.07-.0811.0221-.0377.0383-.0674.0493-.0893,0,.0162.0193.0352.0578.0567h0Zm-.7579-.487c-.0715.076-.1236.1409-.1565.1951.0439-.0976.085-.1761.1236-.2356.0054.0057.0122.0125.0204.0204.0085.0082.0125.015.0125.0201h0Zm.0989-.0158c-.2033.2758-.324.4325-.3626.4705.0547-.0703.1097-.1406.1647-.2109.0771-.0975.1208-.176.1318-.2355.0111,0,.0247-.004.0411-.012.0168-.0082.025-.0121.025-.0121h0Zm.8566.4623l-.7741.8603c.159-.2324.3977-.5193.7166-.8603h.0575Zm-.7826.8767l-.0165.0324h-.0164l.0082-.0324h.0247Zm-.0493.065l-.0165.0323-.0246-.008.0164-.0326.0247.0083h0Zm-.0825.1054l-.0247.0405-.0164-.0079.0246-.0488.0165.0162h0Zm-1.8944-1.5341h-.025v-.0405h.025v.0405h0Zm0,.682c-.0168-.038-.0329-.0677-.0496-.0893-.0108-.0541-.0193-.0975-.0247-.1298-.0111-.0111-.0025-.0298.0247-.057.0221.1352.0385.2274.0496.2761h0Zm-.758-.8359c0,.0269-.0193.0621-.0576.1051.0165-.0646.0247-.1159.0247-.1539.0218.0272.0329.0431.0329.0488h0Zm-.1483.081l-.0164.0811h-.0164l.0082-.0811h.0246Zm1.0545,1.4284h-.0164v-.0323h.0164v.0323h0Zm.3623.544l-.0165.0323-.0164-.0082.0164-.0323.0165.0082h0Zm-.2636-.1298h-.0165l-.0493-.1951h.0164l.0494.1951h0Zm.2389.1703l-.0164.0323-.0165-.0082.0165-.0323.0164.0082h0Zm.453.4383c-.0162.0161-.0354.0351-.0575.0567-.0219.0218-.0358.0351-.0411.0408.0053-.0326.0275-.0652.0657-.0975h.0329Zm-.6755-.5358h-.0244v-.0323h.0244v.0323h0Zm.6755.3977c-.1261.1678-.2194.2923-.2801.3733-.0053,0-.0218-.0136-.0493-.0405.1208-.146.2308-.2571.3294-.3328h0Zm-1.3507,1.5826h-.0249v-.0323h.0249v.0323h0Zm-.1154.4708c-.011,0-.0221-.0054-.0329-.0161,0-.0162.0108-.0298.0329-.0408v.0569h0Zm-.0329.1542c0,.027-.011.0516-.0331.0732v-.057l.0331-.0162h0Zm-.0331.2435h-.0165v-.1542h.0165v.1542h0Zm.7991.9009c-.0054.2112-.0083.3353-.0083.3733-.0164.0054-.0275.0108-.0328.0164-.0165-.1354-.0221-.2624-.0165-.3815.0054-.0326.0165-.0649.0329-.0975,0,.0218.0082.0513.0247.0893h0Zm0,.4788c0,.0272-.0136.0541-.0411.0813v-.1542c.0275.0541.0411.0782.0411.0729h0Zm.0496.2843c-.0275.0323-.0414.0484-.0414.0484-.0054-.0215-.0122-.0566-.0207-.1054-.0082-.0488-.015-.0839-.0204-.1055.0164-.0053.0275-.0082.0329-.0082.011.1029.0275.1596.0496.1707h0Zm-.4862-.4221h-.0164v-.057h.0164v.057h0Zm0,.0567h-.0164v-.0405h.0164v.0405h0Zm.0165.0731h-.0247v-.0326h.0247v.0326h0Zm.4365.8926h-.0164l-.0165-.024.0165-.0083.0164.0323h0Zm-.0493.0247h-.0165l-.0164-.0652h.0247l.0082.0652h0Zm3.2612-1.8967l-.0328.0298-.0083-.019.0329-.0297.0082.0189h0Zm-.6258.1273l-.0332.0162v-.0162l.0247-.0082.0085.0082h0Zm1.1035.4785c-.0054.0111-.0108.0247-.0165.0408-.0218,0-.0382.0054-.0493.0162-.0057.0595-.0164.1001-.0331.1216-.0162.0218-.0465.0462-.0905.0731h-.0329c-.011,0-.0235-.0054-.0371-.0161-.0136-.0108-.0261-.0162-.0371-.0162-.0054,0-.0165.0043-.0329.0122s-.0272.0147-.0329.0201c-.0275,0-.066-.0045-.1154,0-.0609.006-.085.0162-.0742.0162-.0493.011-.0987.038-.1483.0813-.0054-.0053-.0122-.0121-.0204-.0204-.0082-.0079-.0125-.0147-.0125-.0201-.0164.0108-.0286.0201-.0368.0284-.0082.0082-.0207.015-.0371.0201-.0111.0218-.0241.0587-.0494.1057-.013.0235-.0277.0323-.0331.0323h-.0329c0-.0541-.0193-.0757-.0578-.0649-.0054-.0108-.0026-.0244.0082-.0405,0-.0162-.0108-.027-.0326-.0326v-.0241c0-.0165-.0057-.0244-.0167-.0244-.0108,0-.0318.0028-.0618.0079-.0301.0054-.0479.0083-.0536.0083-.0054,0-.015-.0029-.0289-.0083-.0136-.0051-.0233-.0079-.0287-.0079.0108-.0218-.0028-.0487-.0411-.0813,0-.0216.0111-.0377.0329-.0488l-.0246-.0241c-.0111.0054-.0264.0108-.0454.0162-.019.0053-.0343.0107-.0453.0161.0053-.038.0053-.0567,0-.0567l-.0247.0244h-.0575c.0218-.0218.0575-.0624.1068-.1219v-.0244c.0054-.0054,0-.0082-.0164-.0082-.0054,0-.019.0111-.0411.0326.0054-.0054-.0165-.0326-.0661-.0811.0275-.0269.0414-.0459.0414-.0567,0-.0107-.0028-.0189-.0082-.0246-.0057-.0054-.0082-.0216-.0082-.0488,0-.0051-.0057-.0107-.0168-.0158,0,0-.0082.0025-.0246.0079h-.0329c.0164-.0485.0301-.0731.0411-.0731.0111,0,.015.0031.0125.0082-.0029.0054.0014.0082.0125.0082.0053,0,.0164-.019.0328-.057-.0164-.0107-.0385-.0161-.066-.0161.0221-.0216.0303-.0377.0246-.0488.0222.0054.0332.0082.0332.0082.0162,0,.0493-.0161.0987-.0487h.0413c0,.0054.0026.0082.0083.0082-.0057,0,.0357-.0111.1236-.0326-.0222.0057-.055.0164-.099.0326.0054.0108.0111.0162.0165.0162.0328,0,.0785-.008.1318-.0324.0289-.0133.0686-.0408.1236-.0731h-.0083c-.011-.0054-.0274-.0054-.0496,0-.0218.0054-.0328.0082-.0328.0082-.0108,0-.0139-.0028-.0083-.0082.0057-.0054.0029-.0082-.0082-.0082h-.0411c.0712-.0054.1865-.0216.3458-.0485.0111-.0057.0358-.0272.0743-.0652.0165,0,.0329-.0051.0493-.0161.0165.0487.0414.0731.0743.0731.0054,0,.0221-.0068.0493-.0204.0275-.0133.044-.0201.0496-.0201.0108,0,.0204.0053.0287.0161.0082.0105.0153.0162.0207.0162.0107,0,.0164-.0054.0164-.0162.0054.0054.0139.0136.0247.0244,0,0,.0068-.0043.0206-.0122.0137-.0082.0233-.0176.0287-.0283,0,.0053.0056.0189.0167.0405.0108.0215.0108.0323,0,.0323.0054.0054.03.0298.074.0731-.0108,0-.0082,0,.0082,0,0,0,.0111-.0107.0329-.0323.0221.0377.0332.0567.0332.0567-.0057,0,.0053-.0025.0326-.0082.0056.0108.0031.0244-.008.0405.0054.0165.0165.0272.0329.0326.0111-.011.0082-.0243-.0082-.0405h.0414c0,.0269.0053.0567.0161.0893-.0218,0-.0411.0054-.0575.0161.0275.0216.0371.0324.0289.0324-.0085,0,.0068.0028.0453.0082-.0167.0108-.036.0272-.0578.0487.0054.0272.0029.0596-.0082.0975.0057.0108.0082.0241.0082.0406,0,.0051-.0057.0161-.0164.0323.0164.0272.0329.0405.0493.0405-.0054,0,.0057-.0025.0329-.0082h0Zm-1.2603-.3651c-.0164.0162-.03.0272-.0411.0326s-.019.0108-.0247.0162c.0219-.0377.044-.0542.0658-.0488h0ZM5.2254,22.4949v-5.1854h1.0437l1.2444,3.6705c.1154.3416.1987.5976.2512.7677.0601-.1883.1545-.466.282-.8317l1.2665-3.6065h.9324v5.1854h-.669v-4.3382l-1.5361,4.3382h-.6273l-1.5191-4.4178v4.4178h-.6687Zm5.5602,0l2.0191-5.1854h.7656l2.1427,5.1854h-.7928l-.6089-1.5718h-2.2161l-.5707,1.5718h-.7389Zm1.5142-2.1294h1.7935l-.5488-1.4375c-.1655-.4371-.2905-.7979-.3773-1.0828-.0723.3379-.1689.6701-.2902.9984l-.5772,1.5219h0Zm3.9801,2.1294v-5.1854h2.3324c.4694,0,.8257.047,1.0698.14.2435.093.4385.2571.5842.4924.1457.2355.218.496.218.7809,0,.3682-.1213.6783-.3626.9306-.2412.2523-.6137.4119-1.1185.4805.1848.0867.3246.1738.4201.2582.2035.1834.3957.4142.576.6906l.9102,1.4122h-.87l-.6956-1.0792c-.2024-.3126-.3702-.5505-.5011-.7157-.1324-.1653-.2501-.2801-.3541-.3464-.1029-.0652-.2095-.1111-.3172-.1375-.0785-.0159-.2072-.0244-.3872-.0244h-.8062v2.3032h-.6982Zm.6982-2.897h1.4947c.3186,0,.5658-.0326.7447-.0978.1789-.0638.3149-.1676.4068-.3116.0932-.1422.1397-.2965.1397-.4643,0-.2452-.0896-.4478-.2696-.606s-.4643-.2367-.8526-.2367h-1.6637v1.7164h0Zm5.9465,2.897h.6985v-2.1969l2.1022-2.9885h-.8124l-1.0194,1.5281c-.2265.3379-.4212.6421-.5819.9136-.1639-.2908-.3442-.5819-.5378-.8728l-1.04-1.5689h-.8379l2.0287,2.9885v2.1969h0Zm-10.3892,3.7746l-.4366-1.4238h.256l.2308.8217.0816.3059c.0034-.015.0283-.1131.0748-.2937l.2288-.8339h.2511l.2174.8265.0712.2713.0831-.275.2497-.8228h.2381l-.4535,1.4238h-.2535l-.2293-.8518-.0578-.2438-.2925,1.0956h-.2594Zm1.6591-.7121c0-.2627.0743-.4575.2234-.5842.1236-.1052.2755-.1579.4541-.1579.1981,0,.3605.0641.4867.1922.1258.1276.1891.3045.1891.5301,0,.1828-.0278.3263-.0837.4309-.0555.1048-.1369.1862-.2435.2443-.1063.0581-.2228.0867-.3486.0867-.2024,0-.3657-.0635-.4904-.191-.125-.1276-.1871-.3113-.1871-.5511h0Zm.2506.0006c0,.182.0402.3183.121.4082.0814.0907.1829.1358.3059.1358.1216,0,.2228-.0451.3041-.1361.0805-.091.1211-.2296.1211-.4156,0-.1757-.0408-.3086-.1222-.3988-.0811-.0904-.1823-.1358-.303-.1358-.123,0-.2245.0448-.3059.135-.0808.0901-.121.2259-.121.4073h0Zm1.3873.7115v-1.4238h.2196v.2179c.0562-.1009.1083-.1678.1559-.1998.048-.0323.1004-.0485.1574-.0485.0827,0,.1666.0258.252.0766l-.0871.2225c-.0595-.0329-.1187-.0493-.1783-.0493-.0532,0-.1011.0158-.1434.0476-.0422.0314-.0723.0754-.0904.1318-.0275.0853-.0408.1791-.0408.2809v.7441h-.2449Zm.9241,0v-1.9644h.2451v1.9644h-.2451Zm1.557,0v-.1806c-.0915.1403-.2259.2106-.4036.2106-.1151,0-.2209-.0309-.3172-.0935-.0964-.0624-.171-.1497-.2245-.2611-.053-.1119-.0791-.2406-.0791-.3861,0-.1417.0238-.2701.0717-.3857.0485-.1154.1202-.2041.2163-.2654.0955-.0618.2032-.0924.3214-.0924.0873,0,.165.0184.2325.0547.068.036.1233.0834.1658.1415v-.7064h.2452v1.9644h-.2285Zm-.7738-.7101c0,.182.0388.3178.1173.4079.078.0899.1704.1347.2764.1347.1074,0,.1981-.0428.2735-.1287.0746-.0862.1123-.2174.1123-.394,0-.1936-.038-.3362-.1148-.4275-.076-.0907-.1701-.1361-.2821-.1361-.1091,0-.2001.0434-.2735.1307-.0726.0873-.1091.2251-.1091.413h0Zm-12.2023-.2812h4.9206v.1375h-4.9206v-.1375h0Zm15.514,0h4.9206v.1375h-4.9206v-.1375h0Zm5.8496-17.1748v-1.4995h.6295c.1267,0,.2231.0136.2886.0405.0663.0266.1191.0745.1582.1426.0391.0683.0589.1431.0589.2253,0,.1066-.0326.1965-.0978.269-.0652.0737-.1658.1199-.3019.1392.0494.0255.0874.0508.1134.0746.0547.0533.1066.1199.1551.1998l.2463.4085h-.2353l-.1876-.3115c-.0544-.091-.1004-.1599-.1358-.2075-.0354-.0477-.0672-.0808-.0952-.1004-.0284-.0184-.0564-.032-.0862-.0394-.0204-.0042-.0553-.0071-.104-.0071h-.2177v.6659h-.1885Zm.1885-.8377h.4036c.0859,0,.1528-.0093.2013-.028.0482-.0184.085-.0491.1094-.0904.0255-.0409.0377-.0856.0377-.1344,0-.0706-.0235-.1295-.0726-.1749-.0487-.0456-.1253-.0683-.2299-.0683h-.4495v.496h0Zm.3285-1.2597c-.7226,0-1.3088.6177-1.3088,1.3802s.5862,1.3805,1.3088,1.3805c.7223,0,1.3079-.618,1.3079-1.3805s-.5856-1.3802-1.3079-1.3802h0Zm0,.1418c-.6483,0-1.1741.5544-1.1741,1.2384s.5258,1.2388,1.1741,1.2388c.648,0,1.1735-.5548,1.1735-1.2388s-.5255-1.2384-1.1735-1.2384Z"/></svg>