<?xml version="1.0" encoding="UTF-8"?><svg id="_Слой_1" xmlns="http://www.w3.org/2000/svg" viewBox="0 0 36.79 36.79"><defs><style>.cls-1{fill:#fefefe;}.cls-2{fill-rule:evenodd;}</style></defs><rect class="cls-1" x="2.19" width="32.76" height="34.73"/><path class="cls-2" d="m0,0h36.79v36.79H0V0h0Zm7.17,19.22s-.02,0-.04,0c0,.03,0,.07,0,.13,0-.02,0-.04.02-.07,0-.03.01-.05.02-.06h0Zm-.02.24s0-.05-.01-.07c0,0,0,.02-.03.07,0,0,.02,0,.04,0h0Zm5.89-9.66l.51.58s0-.02,0-.03c-.01,0-.03.01-.04.02,0,0,0,.02,0,.03.01,0,.02-.01.04-.02l-.51-.58h0Zm-.23.29s0-.02,0-.03c-.01,0-.02.01-.04.01,0,.01,0,.02,0,.03.01,0,.02-.01.04-.02h0Zm.61.35s0-.02,0-.03c-.01,0-.03.01-.04.02,0,0,0,.02,0,.03.01,0,.03-.01.04-.02h0Zm.09.13c-.18.02-.26.03-.22.01,0,0-.01.01-.01.02,0,0,0,.02-.01.02-.01,0-.04,0-.08,0-.04,0-.07,0-.08,0-.01,0-.03.01-.03.02,0,.01-.01.02-.02.02-.03.01-.07,0-.1-.02,0-.02-.02,0-.04.06,0,0-.04,0-.11.02,0,.03.02.07.03.1,0,0,.01,0,.02-.02,0,0,.02-.02.03-.02,0,0,.03,0,.07.02.04.01.06.02.07.01.15-.07.24-.1.26-.11,0-.01.02-.03.03-.04.01-.02.02-.03.03-.03.08-.04.13-.06.16-.08h0Zm-.59.01s0-.02,0-.03c-.02,0-.04.02-.05.02,0,0,0,.02,0,.03.02,0,.04-.02.05-.02h0Zm-.19.19s0-.02,0-.03c-.04.02-.08.03-.12.05,0,0,0,.02,0,.03.04-.02.08-.03.12-.05h0Zm-.25.18s0-.02,0-.03c-.01,0-.03.01-.04.02,0,0,0,.02,0,.03.01,0,.02-.01.04-.02h0Zm-.09-.05s0-.02,0-.03c-.02,0-.05.02-.07.03,0,0,0,.02,0,.03.02,0,.05-.02.07-.03h0Zm.02.08s0-.02,0-.03c-.03,0-.07.01-.1.02,0,0,0,.02,0,.03.03,0,.07-.01.1-.02h0Zm-.95.2s0-.02,0-.03c-.03.01-.06.02-.08.03,0,.01,0,.02,0,.03.03-.01.05-.02.08-.04h0Zm-1.88-.54s0-.02,0-.03c-.02,0-.04.02-.06.03,0,0,0,.02,0,.03.02,0,.04-.02.06-.03h0Zm-1.35-.56s0-.02,0-.03c-.02,0-.04.02-.05.03,0,0,0,.02,0,.03.02,0,.04-.02.05-.03h0Zm3.21,3.23s-.04,0-.07,0c0,0,0,.01,0,.02.02,0,.04,0,.06,0,0,0,0-.01,0-.02h0Zm2.46-3.21s-.24.08-.57.23c0,0-.04.02-.1.03-.06.02-.09.03-.1.04-.02,0-.07.01-.16.02,0,0,0-.01,0-.02,0,.02-.01.03-.02.05-.02-.01-.04-.01-.05,0,.02.01.02.02,0,.03-.07.03-.13.03-.19.01-.06-.02-.1-.03-.13-.04-.17.04-.29.07-.38.09-.01,0-.02,0-.03,0,0-.01.01-.03.02-.04.15-.04.26-.07.33-.09.19-.04.42-.12.7-.24,0,0,.04-.01.08-.02.04-.01.07-.02.08-.03.03-.01.07-.05.13-.09.06-.05.1-.08.13-.08-.03.01-.06.02-.09.02-.03,0-.05,0-.06.01-.09.04-.16.05-.21.04,0,0,.02-.02.03-.03-.01,0-.03,0-.04,0,.02-.04.05-.07.08-.07.06-.01.09-.02.09-.02,0,0,.02-.02.02-.03,0-.02.01-.03.02-.03.04-.02.05-.04.05-.07-.03.03-.06.05-.11.07-.01,0-.03,0-.03,0,0,0-.02,0-.03,0,0,0-.03.01-.05.03-.02.02-.04.03-.05.03-.09.04-.22.06-.37.07,0-.02.03-.03.07-.04-.12,0-.22.03-.3.06-.06,0-.1,0-.14-.02-.03-.01-.1,0-.19.05-.01,0-.05.01-.1.01-.05,0-.09,0-.11.02-.08.02-.17.05-.27.07-.31.08-.55.14-.7.19.04-.03.06-.05.07-.05.03-.05.04-.07.03-.07.03-.01.15-.05.36-.1.26-.07.46-.11.59-.14.06-.03.11-.05.15-.06.09-.02.15-.03.16-.04.02,0,.04-.01.08-.02.03,0,.06,0,.07-.01.01,0,.01-.01.01-.02,0-.01,0-.02.01-.02.01,0,.02,0,.02,0,0,.01,0,.01.01.01,0,0,.02-.01.03-.03,0-.01.02-.02.03-.03.04-.01.11-.04.22-.06.11-.03.2-.06.27-.09.06-.03.12-.06.18-.1-.13.04-.27.08-.41.13-.2.05-.36.08-.48.09,0-.01.01-.02.03-.03-.29.08-.42.12-.39.1-.02-.01-.04-.02-.06-.04-.1.02-.17.04-.23.05-.23.08-.4.15-.51.2-.02-.02-.04-.02-.06-.01-.01,0-.02.01,0,.02,0,.01,0,.02,0,.02-.02,0-.03,0-.06,0-.02,0-.04,0-.05,0,0,0,.02,0,.05.02-.04.04-.06.06-.06.06-.06.03-.16.06-.29.09-.01.05-.02.08-.02.08-.08.04-.13.06-.14.06,0-.02,0-.04,0-.04-.02,0-.04.02-.06.03-.02.05-.03.07-.02.06-.02,0-.03,0-.03,0,0,0-.02,0-.03,0-.01,0-.04.03-.1.06-.06.04-.1.06-.11.06-.02,0-.03,0-.03-.03.08-.06.13-.11.16-.15-.27.07-.5.15-.69.23-.07.04-.12.06-.15.08.02-.01-.04.03-.19.11-.07.09-.1.14-.11.14-.12.07-.22.12-.28.16-.12.09-.22.17-.3.22-.11.07-.38-1.29-.42-1.25-.04.04-.06.06-.06.06,0,0-.05.04-.14.1-.09.06-.15.11-.19.13,0,0,0-.02-.01-.03-.01.08-.09.17-.23.27-.2.15-.33.23-.34.27-.12.29.31,1.82-.68,2.25.03-.01.05,0,.05.02-.02.03-.06.05-.1.05.03,0,.06,0,.12.01.05,0,.09.01.12.02,0,0,0,.02,0,.07.05-.08.07-.15.08-.19,0,0,.02,0,.03,0,.01,0,.03,0,.03,0-.07.14-.12.23-.14.27-.02.01-.04.03-.04.03-.03-.02-.06-.03-.08-.02-.01.04-.04.08-.08.11-.04.03-.07.08-.09.15-.07.05-.13.09-.2.11-.01,0-.04,0-.1-.02-.05-.02-.08-.03-.1-.02-.03.01-.06.03-.09.05-.05.05-.07.1-.08.15.01.14.01.19,0,.16,0,.04.05.07.13.09.08.03.13.03.16.02.02,0,.06-.05.1-.11.05-.07.07-.11.07-.12.03-.13.08-.21.14-.24.01,0,.02,0,.03,0,0,0,.01.01.02,0,.06-.02.13-.08.2-.17,0,.01.01.02.02.04.03.02.07.04.12.04-.04.07-.07.11-.08.14.04-.02.07-.03.09-.03,0,.04.01.06.02.08,0,.02,0,.05-.03.07-.04.03-.06.07-.06.08,0,0,.03.04.07.17.02.03.05.03.09.03.01,0,.02-.02.03-.04.01-.02.02-.03.03-.04.03,0,.05-.01.05,0,0,.14.02.25.04.33.06.27.09.49.07.65-.07.21-.14.35-.2.44,0,.03,0,.05,0,.07-.02.01-.05.08-.11.21-.06.13-.08.21-.08.25,0,.06.05.09.12.07,0,0,.03-.03.1-.09.03.02.05.04.05.04-.04.09-.06.15-.08.2.01.01.02.02.03.03.05-.01.07-.02.07-.02,0,0,0,.01,0,.02-.03.03-.07.05-.1.06-.05.08-.09.14-.12.18.01,0,.02.03.02.05.09-.06.14-.05.15.04,0,.01,0,.03,0,.06,0,.03,0,.05,0,.06.06,0,.1,0,.13.01-.01.01-.02.03-.02.06,0,0-.04.03-.1.07-.06.14-.08.25-.06.33.02.06.03.09.03.09-.05.17-.08.29-.09.37.02.04.01.14,0,.3-.03.19-.04.31-.04.35.01-.02.02-.09.04-.2.01-.08.03-.14.07-.18,0,.04,0,.07,0,.11,0,0-.02.07-.04.19-.01.08-.04.14-.08.2-.02.22-.02.38-.03.48,0,.02-.02.04-.03.04.02.05.03.1.03.15-.01.07-.02.11-.02.1,0,.01,0,.03.01.05,0,.02.01.03.01.05,0,.08,0,.16.02.22,0,.02.01.04.04.06,0-.04,0-.06,0-.07.01,0,.02.02.03.04,0,.03,0,.05-.02.09.04.08.07.15.09.21,0,.05,0,.08.01.1.03.02.06.03.08.01.02-.01.03-.04.05-.08.01-.04.02-.08.02-.1,0-.02-.01-.04-.01-.06,0-.02-.01-.02-.03,0-.02.02-.03.03-.04.04-.04-.01-.07-.03-.07-.07-.01-.08,0-.19.03-.33.03.02.05.08.06.19.02-.01.04-.02.06-.04,0-.03,0-.05.01-.07,0,0,0,.02.01.04.06,0,.09.01.09.04,0-.04,0-.06,0-.08.01,0,.03,0,.04,0,0,.04,0,.09.02.13.02.11.03.17.04.18.05,0,.09,0,.11,0,0-.06-.02-.12-.02-.18,0-.09.02-.15.05-.17,0,0,.02,0,.02,0,0,0,0,0,.02-.01,0,0,.02-.02.02-.04,0-.02.01-.03.02-.04.03.04.05.08.05.12,0,0,.01,0,.03,0,.01,0,.02,0,.03,0,0-.1.01-.18.02-.23.06-.02.1-.03.12-.04,0,.01,0,.02.01.03,0,0,.01,0,.01,0,0-.04,0-.08,0-.1.02-.06.03-.08.03-.06,0-.02,0-.05,0-.09,0-.04,0-.07,0-.09,0-.1.04-.24.1-.4-.02-.02-.02-.05,0-.09.04-.1.07-.17.1-.24-.03.04-.05.05-.08.04.03-.17.08-.35.13-.53.25-.9.35-1.31.35-1.25,0-.02,0-.03-.02-.04.23-.21.36-.32.41-.33,0,0-.02,0-.05-.02.04-.02.12-.07.22-.14-.02.01-.04.01-.06,0,.04-.04.07-.06.1-.07.01,0,.02-.01.03-.01,0,0,0,0,0,0,0,0-.01.02-.02.03,0-.01.02-.02.03-.04.01-.02.02-.03.02-.03.01,0,.03.01.04.02.28-.16.48-.29.63-.37.14-.09.25-.15.32-.21,0,0,.02-.02.03-.04.02-.02.03-.03.04-.04.01,0,.02,0,.01,0,0,0,0,0,.02,0,.02,0,.06-.04.13-.11.06-.06.1-.11.12-.13.02-.02.03-.05.04-.06.03,0,.04.01.04.01.02,0,.07-.05.15-.13.08-.08.15-.13.21-.16.01,0,.12-.03.32-.06.2-.04.31-.05.32-.06.03-.01.08-.04.15-.09.04-.03.06-.08.07-.15-.06,0-.09-.01-.1-.03,0-.01.01-.02.02-.04.01,0,.03-.01.05-.02.01,0,.02.02.04.02.02,0,.04-.01.07-.02.03,0,.05-.01.06-.02.02,0,.04-.04.05-.09,0-.01-.01-.03-.02-.06-.01-.03-.02-.05-.02-.06-.1-.07-.22-.12-.37-.17.08-.04.2-.08.35-.11.21-.03.34-.06.38-.07-.01,0-.03,0-.06,0-.03-.01-.05-.02-.06-.01-.02,0-.02.01-.02.02,0,0,0,0,0,.01-.01,0-.03,0-.06,0-.03,0-.05-.01-.06,0-.1,0-.18.02-.26.06.01,0-.1,0-.33.02,0-.01,0-.03-.01-.04.01-.03.03-.04.05-.05.02-.01.04-.02.06-.04.01-.02.03-.03.04-.03.01,0,.05,0,.1-.01.05,0,.09-.01.1-.02.05-.02.07-.06.06-.11-.03-.02-.08-.02-.13,0-.01,0-.02,0-.03,0-.01,0-.02,0-.03,0-.08.03-.09.04-.06.04-.02,0-.04,0-.05,0,.04-.08.05-.12.05-.13-.03-.01-.06-.03-.09-.04,0,0,0,.02-.01.03-.02-.01-.04-.02-.06-.03-.02,0-.03,0-.03,0,.05-.05.07-.08.07-.08-.07-.08-.14-.1-.22-.05-.05-.03-.07-.04-.06-.05-.03,0-.05.04-.06.09,0,.05-.03.09-.06.11,0,0,0-.02-.02-.04-.01-.02-.03-.02-.05-.02-.01,0-.02.01-.01.02,0,0,0,.01-.02.02,0,0-.01,0-.05-.03,0-.06-.01-.11-.01-.14-.06-.11-.13-.21-.2-.29-.02-.01-.06,0-.11.02-.02,0-.04.02-.06.04-.02.02-.03.03-.04.03-.06.03-.16.06-.3.09-.14.03-.24.07-.31.1.09-.03.23-.06.42-.1.17-.03.26-.05.27-.06.01,0,.02-.01.02-.02,0,0,0-.01.02-.02.03-.01.06,0,.1.06-.05.1-.07.17-.06.21-.07.01-.12.02-.16.03,0-.02-.01-.04-.02-.06-.08.08-.14.11-.19.09,0,.01-.02.03-.03.04-.1,0-.16,0-.17-.02.02-.01.03,0,0,.03-.03.03-.04.05-.06.06,0,0-.04,0-.11.03-.07.02-.11.03-.12.03-.01,0-.05.03-.1.08-.06.04-.09.07-.1.08-.01,0-.03,0-.04,0-.02,0-.04,0-.05,0-.01,0-.02.01-.02.03,0,.01,0,.02-.02.03-.04.02-.06.02-.09.02,0,0,0,0-.01-.01-.11.08-.2.14-.28.19-.3.25-.46.38-.49.39-.02.01-.03,0-.02-.01,0-.01,0-.03-.01-.04-.02-.48-.03-.75-.04-.82-.01-.07-.03-.13-.05-.17.15-.21.44-.45.87-.73,0-.04,0-.06,0-.07.01,0,.03-.01.04-.02.4-.18.61-.28.65-.3.02-.01.05-.04.1-.08.05-.04.08-.06.09-.06.02,0,.06-.02.13-.04.07-.02.11-.03.12-.04.02,0,.04-.03.06-.06.02-.03.04-.05.05-.06.03-.01.05-.01.07,0,0,.02-.02.03-.05.05-.02.01-.04.02-.04.03.09-.05.17-.08.22-.1-.03-.02-.04-.03-.03-.04.03-.01.05-.02.08-.03,0,0,.02,0,.03,0,0,.02-.02.04-.02.06.02-.02.03-.02.04.01.1-.06.17-.09.22-.09.1-.03.26-.09.49-.16.23-.07.34-.1.34-.1.01,0,.01-.01,0-.02,0,0,0-.02.01-.03,0,0,.01,0,.02.02.04-.02.08-.03.1-.04.02,0,.05,0,.09-.01.03,0,.06,0,.07-.01.04-.02.07-.06.09-.13,0,.01,0,.02-.02.03,0,0-.03,0-.07.01-.04,0-.07,0-.08.01-.01,0-.07.02-.17.04-.1.02-.17.03-.2.05-.15.05-.3.1-.44.15-.21.07-.35.1-.43.09,0-.02,0-.04-.01-.06,0,0,.03,0,.05,0,.02,0,.05-.03.1-.07.05-.04.08-.06.09-.06.02,0,.05-.01.1-.01.05,0,.08,0,.09.02-.02.02-.01.03.02.03.01-.03.03-.05.05-.06.05-.02.11-.02.17,0-.03-.03-.04-.05,0-.06,0,0,.09-.01.29-.06-.02,0-.02,0,0-.03.01,0,.03-.01.05-.02.06-.02.1-.02.12,0,0-.02,0-.04.01-.05.02,0,.04,0,.07.01-.01,0-.01-.02,0-.03.06-.05.09-.07.07-.06.06-.02.11-.04.17-.04-.01.02-.02.04-.01.05.04-.05.06-.08.05-.07.02,0,.07-.02.16-.04.09-.02.14-.03.15-.04,0,0,.05-.03.16-.08s.18-.09.22-.11c-.03.01-.05.02-.05.03-.01,0-.02-.01-.02-.02.09-.06.15-.1.19-.13.04,0,.1,0,.16-.03,0,0,.05-.04.15-.11.04-.02.08-.04.12-.06.05-.03.08-.06.09-.08h0Zm-3.03,4.52s-.05.04-.07.07c.02,0,.04-.02.06-.03,0-.01,0-.02,0-.04h0Zm-3.65-1.57c0-.09-.01-.13-.01-.14-.04.03-.06.06-.05.1,0,.04.03.05.07.04h0Zm-.56.27s-.02-.03-.03-.06c-.05.02-.1.04-.15.05,0,.03-.01.06,0,.08,0,.01.02.02.04.04.02,0,.04-.01.06-.02.06-.02.08-.05.07-.09h0Zm.5.61s0-.03-.02-.1c-.02.03-.02.07-.02.12,0,0,0-.01.03-.02h0Zm-.87-.12s-.06.01-.08,0c0,.01.02.03.05.04.01-.03.02-.04.03-.04h0Zm3.26,1.91s0-.02,0-.03c-.01,0-.03.01-.04.02,0,0,0,.02,0,.03.01,0,.02-.01.04-.02h0Zm3.86-5.78s0-.02,0-.03c-.02,0-.04.02-.06.03,0,0,0,.02,0,.03.02,0,.04-.02.06-.03h0Zm-.5,0c-.08.03-.19.06-.33.09-.18.02-.33.06-.42.11-.01,0-.02-.01-.03-.02,0-.03,0-.04,0-.04,0,0,0,0-.01.02,0,.01-.01.02-.03.03,0,0-.04.01-.08.02-.04,0-.07.02-.09.02-.1.04-.19.07-.26.09.05.02.16,0,.35-.04.05.01.07.02.07.02,0,0,.03-.02.05-.03.03-.02.05-.03.05-.04-.06.03.1,0,.49-.1.04-.01.07.01.08.07.09-.04.14-.06.14-.06-.04,0-.06,0-.07-.04,0-.02,0-.03,0-.04,0,0,0-.02,0-.02.03-.02.06-.03.1-.04h0Zm-.16.67c-.18.08-.32.12-.41.13,0,.01,0,.03,0,.05.15-.04.26-.07.32-.1.06-.02.09-.05.09-.09h0Zm.06.23s-.05-.02-.07-.01c-.01,0-.02.03-.04.07.03-.01.05-.03.08-.04.03-.01.04-.02.04-.02h0Zm-.66-.3l.55.31s-.01,0-.02-.01c-.02.04-.04.07-.06.11,0,0,.01,0,.02.01.02-.03.04-.07.06-.11l-.55-.31h0Zm-.02.04s0-.02,0-.03c-.03.02-.06.04-.09.06,0,0,0,.02,0,.03.03-.02.06-.04.09-.06h0Zm-.64-.28c-.28.09-.46.16-.53.2.38-.12.54-.17.5-.15.03-.01.04-.03.03-.05h0Zm-.39.02s-.02-.03-.04-.04c-.04.03-.08.06-.13.09.07-.03.13-.05.17-.05h0Zm-.3.07s-.02.02-.04.03c0,0-.02-.01-.08-.04-.02,0-.05.01-.08.01-.02.04-.03.07-.02.1,0,0,.01-.01.02-.03.01-.02.02-.03.03-.03,0,0,.03,0,.06,0,.03,0,.05,0,.06,0,.02,0,.03-.02.04-.05h0Zm-.26.07s-.08.03-.12.04c.02,0,.04,0,.06.01.03.01.04.02.05.01-.01,0-.01-.03,0-.06h0Zm.92.56s-.05.01-.17.06c0,.04.04.04.09.02.03-.01.06-.04.08-.09h0Zm-.38.3s-.11,0-.22-.02c-.02,0-.03.02-.05.02-.01,0-.03,0-.06,0s-.05,0-.06,0c-.01,0-.04.03-.08.08-.01.02-.05.04-.11.06,0,0,.01.02.04.03.03-.02.07-.06.12-.1,0,0,.02.01.03.02,0,0,.02,0,.02-.01.04,0,.07.03.1.06.02-.02.05-.03.08-.05,0,0,0-.01.02-.05.01,0,.03,0,.04.01.03-.03.08-.06.12-.07h0Zm.2,1.12s-.01-.05-.02-.07c-.06-.03-.12-.03-.21,0-.07.03-.09.09-.06.18,0,.02-.02.04-.04.08.15-.01.21-.01.17,0,.05-.02.1-.09.16-.2h0Zm.25.69s0-.02,0-.03c-.03.02-.06.03-.1.04,0,0,0,.02,0,.03.03-.01.06-.03.1-.04h0Zm-.14-.11s-.04.04-.07.09c.03.02.06.03.07.02,0-.01,0-.03,0-.06,0-.03,0-.04,0-.05h0Zm-1.33-.09s-.03,0-.05,0c0,0,0,.02,0,.02.02,0,.03,0,.05,0,0,0,0-.02,0-.02h0Zm-2.93.4s-.04-.07-.1-.11c-.04.07-.06.11-.06.12,0,.02.01.04.03.06.02.02.02.04.02.05.02,0,.04,0,.05-.01.04-.02.05-.06.05-.12h0Zm2.37,2.44s0-.02,0-.03c-.02,0-.03.01-.05.02,0,0,0,.02,0,.03.02,0,.03-.01.05-.02h0Zm-.58.6s-.01-.03-.02-.05c0-.02-.02-.04-.02-.04,0,.05-.01.1-.02.15.01,0,.04-.03.07-.07h0Zm-.77,1.76c-.04.06-.07.11-.07.14,0,.02,0,.03.02.02,0-.03.02-.09.05-.16h0Zm4.98-8.24s0-.02,0-.03c-.03,0-.06.01-.09.02,0,0,0,.02,0,.03.03,0,.06-.01.1-.02h0Zm8.93,6.71s-.05.01-.08.06c0,0,.02-.01.03-.02.01,0,.03-.02.05-.04h0Zm2.25.43s-.05.01-.04.01c-.02,0-.04-.02-.06-.05.01-.02.02-.03.02-.04,0-.02,0-.04,0-.05.01-.05.02-.08,0-.12.03-.03.05-.05.07-.06-.05,0-.06,0-.05,0s0-.01-.03-.04c.02-.01.04-.02.07-.02-.01-.04-.02-.07-.02-.11h-.05s.02.04,0,.05c-.02,0-.03-.02-.04-.04.01-.02.02-.04,0-.05-.03,0-.05,0-.04,0,0,0-.01-.02-.04-.07-.03.03-.04.04-.04.04-.02,0-.02,0,0,0-.05-.05-.08-.08-.09-.09.01,0,.01-.01,0-.04-.01-.03-.02-.04-.02-.05,0,.01-.02.02-.03.03-.02,0-.02.01-.02.01-.01-.01-.02-.02-.03-.03,0,.01,0,.02-.02.02,0,0-.01,0-.02-.02,0-.01-.02-.02-.03-.02,0,0-.03,0-.06.02-.03.02-.05.02-.06.02-.04,0-.07-.03-.09-.09-.02.01-.04.02-.06.02-.05.05-.08.07-.09.08-.19.03-.33.05-.41.06h.05s.02,0,0,0c0,0,0,0,0,0,0,0,.01,0,.04,0,.03,0,.05,0,.06,0h0c-.07.04-.11.07-.15.09-.07.03-.12.04-.16.04,0,0-.01,0-.02-.02.05-.02.09-.03.12-.04-.1.03-.15.04-.15.04,0,0,0,0,0-.01h-.05c-.06.04-.1.06-.12.06,0,0-.01,0-.04,0,0,.01,0,.03-.03.06.03,0,.06,0,.08.02-.02.05-.03.07-.04.07-.01,0-.02,0-.01,0,0,0,0,0-.01,0s-.03.03-.05.09h.04s.03,0,.03,0c.01,0,.02.01.02.02,0,.03,0,.05,0,.06,0,0,0,.02,0,.03s-.02.04-.05.07c.06.06.08.09.08.1.03-.03.04-.04.05-.04.02,0,.03,0,.02.01v.03c-.06.07-.1.12-.13.14h.07l.03-.03s0,.02,0,.07c.01,0,.03-.01.05-.02.02,0,.04-.01.05-.02l.03.03s-.04.03-.04.06c.05.04.06.07.05.1,0,0,.02,0,.03,0,.02,0,.03,0,.03,0s.03,0,.06,0c.04,0,.06,0,.07,0s.02,0,.02.03v.03s.04.02.04.04c-.01.02-.02.04,0,.05.05-.01.07.01.07.08h.04s.02-.01.04-.04c.03-.06.05-.1.06-.13.02,0,.03-.01.04-.02s.02-.02.04-.03c0,0,0,.01.01.02,0,0,.02.02.02.02.06-.05.12-.08.18-.1-.01,0,.02,0,.09-.02h.14s.02-.01.04-.02c.02,0,.03-.01.04-.01.01,0,.03,0,.04.02.02.01.03.02.04.02h.04c.05-.03.09-.06.11-.09.02-.03.03-.07.04-.14.01-.01.03-.02.06-.02,0-.02.01-.04.02-.05h0Zm-2.06-.57h0s-.03,0-.03,0v.02l.04-.02h0Zm.75-.15v-.02s-.05.04-.05.04v.02s.05-.04.05-.04h0Zm-5.6.26v-.03h-.15v.03h.15Zm2.17.77v-.03h-.05v.03h.05Zm.07-.02v-.03h-.07v.03h.07Zm.33-.11v-.03h-.06v.03h.06Zm.77-.95v-.03l-.08.02v.03l.08-.02h0Zm1.29-1.3v-.03s-.05.02-.05.02v.03l.05-.02h0Zm-3.46.54s-.03-.04-.08-.04c.01.02.02.03.02.04h.06Zm3.8.74h-.11c-.14,0-.26.02-.35.07l-.04-.04c-.08.04-.13.05-.16.02.21-.06.37-.1.47-.13-.01-.01-.02-.03-.02-.06-.63.1-.97.15-1,.15.02,0,0-.01-.06-.04.09-.03.19-.05.3-.07,0,0-.02,0-.03,0-.02,0-.03,0-.04,0s-.09.02-.25.05c-.15.03-.25.05-.31.06h0c.24-.1.66-.2,1.27-.3.03-.05.04-.07.04-.06h-.11s-.02,0-.02.01c0,0-.01.01-.02.01-.02,0-.04,0-.05,0-.01,0-.03,0-.04,0s-.07.01-.16.03-.16.03-.2.03c-.25,0-.45.04-.6.09-.01-.01-.05-.02-.11-.02,0,.01,0,.03-.02.04-.01-.02,0-.04,0-.06.14-.01.27-.05.39-.11-.41.07-.6.11-.57.11-.04,0-.07,0-.08,0,0,.02-.03.04-.08.05-.24.05-.37.07-.38.07s-.02,0-.03-.02c0-.01-.02-.02-.03-.02,0,0-.09.02-.25.06-.04.03-.07.05-.09.06-.02-.02-.03-.03-.03-.03-.03,0-.06.02-.09.05-.02-.02-.03-.03-.02-.03-.02,0-.14.03-.36.08-.22.05-.34.08-.35.08s-.03,0-.04-.02c.06-.05.1-.09.13-.11.22-.06.38-.1.5-.13.04-.02.14-.05.31-.09.14-.03.23-.06.26-.1v-.03c-.11-.01-.28,0-.5.05-.16.04-.32.08-.48.12-.24.04-.41.07-.51.09-.62.19-.9.28-.83.28-.01,0-.03,0-.05,0-.02,0-.04,0-.05,0s-.06,0-.14.03c-.08.02-.14.03-.18.03-.03.04-.05.06-.07.06s-.04,0-.06-.03c0,0,0,0,0-.01,0,0,0-.02,0-.02.11-.05.21-.07.28-.05-.03-.03-.05-.06-.06-.08.02-.02.02-.04,0-.06h-.16s-.06-.05-.07-.05c-.06.08-.12.12-.2.12h-.09v-.09c.07-.15.11-.26.13-.34.02-.02.03-.04.04-.05,0-.04,0-.07,0-.1.1-.3.15-.78.15-1.45l.17-2.06s-.01-.21,0-.58c-.03-.15-.05-.23-.06-.24-.1-.15-.17-.25-.23-.32-.05-.06-.09-.11-.13-.13,0-.03-.01-.07-.06-.11l-.03.03s0-.02,0-.05l-.04.03c-.06-.03-.09-.05-.11-.06-.03.04-.07.06-.1.06-.01,0-.03,0-.06-.02-.03-.02-.05-.03-.07-.03-.02,0-.02-.02-.02-.03,0,.02,0,.03,0,.03,0,0-.03-.04-.09-.12-.05,0-.09-.04-.12-.11-.05-.1-.07-.14-.07-.14-.03-.04-.06-.06-.09-.06-.04,0-.08.02-.13.07-.05.05-.07.09-.07.11,0,.04.02.08.07.13.05.05.09.07.15.07.02,0,.04,0,.06,0,.04.05.08.08.11.11,0,.01,0,.03.02.05.01.02.02.04.02.05s-.03.08-.08.19c-.05.11-.09.19-.1.25,0,0,0,.03,0,.1,0,.04-.02.06-.04.08,0-.01,0-.04,0-.09,0-.06.02-.16.05-.3,0,0,.02-.02.03-.05.01-.03.02-.05.02-.06,0-.03,0-.05-.02-.06h-.06c-.09.15-.14.38-.14.7l-.16,3.2c0,.26-.02.64-.07,1.12-.06.56-.09.85-.1.88,0,.21-.01.36-.02.45-.11.08-.17.13-.17.15,0,.03.01.04.04.05.03,0,.06.02.08.02.02.03.02.07,0,.11-.03.05-.04.08-.04.09,0,.01,0,.03.02.05.01.02.02.03.02.04,0,0,0,.05,0,.15-.01.09-.01.16,0,.2,0,.06.03.1.08.1.01,0,.02,0,.02,0,0,0,.01,0,.02,0s.03.02.06.06c.03.04.05.06.06.07.04-.04.06-.09.05-.16,0-.07,0-.12.03-.15.08.03.15.05.2.04,0,.11.04.16.12.16.06,0,.1-.03.12-.08.01-.03.03-.07.04-.11h.08s.02.05.02.11c.03-.07.05-.11.07-.11.06,0,.1.02.12.05l.02.02s.01-.05.04-.05c.04,0,.08,0,.12.03,0,.01,0,.03,0,.04.1-.04.16-.06.16-.06.05-.05.08-.09.09-.13.18-.1.34-.15.47-.15.01,0,.02,0,.02.01,0,0,0,0,.02,0s.15-.05.41-.15c.29-.11.51-.18.64-.21.37-.11.65-.19.82-.25.01,0,.03,0,.06-.03.03-.02.05-.03.06-.03s.02,0,.01,0c0,0,0,0,.02,0,.12,0,.3-.06.56-.19.06-.03.1-.06.12-.08,0-.03,0-.05-.02-.05-.18.04-.32.06-.4.08-.08.01-.19.04-.32.08-.13.04-.2.06-.21.06-.05,0-.09,0-.13-.02,0,0,.01-.01.02-.02h.02c.07-.01.12-.03.15-.04.03-.01.04-.03.05-.05.24-.07.48-.14.72-.22.26-.08.49-.13.69-.15.12-.01.29-.05.49-.12.24-.08.41-.15.52-.19.12-.02.22-.03.28-.04.12-.04.22-.06.28-.08h0Zm-1.29-1.47h-.03l-.02.04h.02s.03-.04.03-.04h0Zm-4.69-4.13v-.06s-.03-.06-.06-.15c-.02-.05-.06-.08-.12-.1,0,0-.01.02-.03.05-.02.03-.03.06-.03.1,0,.1.03.15.08.15.01,0,.02,0,.02,0s0,0,.03,0c.01,0,.02,0,.03.02,0,.02.02.02.04.02.01,0,.02,0,.03,0,0,0,.01,0,.01,0h0Zm4.69,3.97h-.03l-.02.09h.03l.02-.09h0Zm-5.11-4.49s0-.04,0-.07c0-.03,0-.04,0-.04-.05,0-.09.01-.11.04v.07h.13Zm6.78,6.05v-.03h-.12v.03h.12Zm-1.17-1.3c-.05-.03-.08-.04-.08-.05,0,0,0,.02,0,.03,0,.01,0,.02,0,.02h.1Zm.56.07s0-.03-.03-.04c-.02-.02-.03-.03-.04-.04.02-.02.03-.03.03-.04-.04,0-.06.02-.07.04-.03.05-.07.08-.14.1-.1.02-.15.03-.17.04l.06.05c-.12.07-.2.13-.26.16.05.03.08.05.09.05.05,0,.13-.04.26-.13.09-.06.14-.12.18-.15.05-.02.08-.03.08-.03h0Zm-.26-.17h-.03l-.02.04h.03s.02-.04.02-.04h0Zm-.25.23l-.04.03-.03-.02v.06s.07-.02.07-.07h0Zm-4.85-4.79v-.16h-.06l-.06.06v.11h.12Zm.85.4s-.02-.06-.06-.11c-.04-.05-.08-.08-.12-.08-.08,0-.12.05-.12.15,0,.02.03.07.08.14.05.08.1.12.14.12.02,0,.04,0,.05-.03-.03-.03-.05-.05-.07-.07.07-.04.11-.08.11-.12h0Zm-3.82,5.98s-.05.01-.08.06c0,0,.02-.01.03-.02.01,0,.03-.02.05-.04h0Zm.94.43s-.05.01-.04.01c-.02,0-.04-.02-.06-.05.01-.02.02-.03.02-.04,0-.02,0-.04,0-.05.01-.05.02-.08,0-.12.03-.03.05-.05.07-.06-.05,0-.06,0-.05,0s0-.01-.03-.04c.02-.01.04-.02.07-.02-.01-.04-.02-.07-.02-.11h-.05s.02.04,0,.05c-.02,0-.03-.02-.04-.04.01-.02.02-.04,0-.05-.03,0-.05,0-.04,0,0,0-.01-.02-.04-.07-.03.03-.04.04-.04.04-.02,0-.02,0,0,0-.05-.05-.08-.08-.09-.09.01,0,.01-.01,0-.04-.01-.03-.02-.04-.02-.05,0,.01-.02.02-.03.03-.02,0-.02.01-.02.01-.01-.01-.02-.02-.03-.03,0,.01,0,.02-.02.02,0,0-.01,0-.02-.02,0-.01-.02-.02-.03-.02,0,0-.03,0-.06.02-.03.02-.05.02-.06.02-.04,0-.07-.03-.09-.09-.02.01-.04.02-.06.02-.05.05-.08.07-.09.08-.19.03-.33.05-.41.06h.05s.02,0,0,0c0,0,0,0,0,0,0,0,.01,0,.04,0,.03,0,.05,0,.06,0h0c-.07.04-.11.07-.15.09-.07.03-.12.04-.16.04,0,0-.01,0-.02-.02.05-.02.09-.03.12-.04-.1.03-.15.04-.15.04,0,0,0,0,0-.01h-.05c-.06.04-.1.06-.12.06,0,0-.01,0-.04,0,0,.01,0,.03-.03.06.03,0,.06,0,.08.02-.02.05-.03.07-.04.07-.01,0-.02,0-.01,0,0,0,0,0-.01,0s-.03.03-.05.09h.04s.03,0,.03,0c.01,0,.02.01.02.02,0,.03,0,.05,0,.06,0,0,0,.02,0,.03s-.02.04-.05.07c.06.06.09.09.08.1.03-.03.04-.04.05-.04.02,0,.03,0,.02.01v.03c-.06.07-.1.12-.13.14h.07l.03-.03s0,.02,0,.07c.01,0,.03-.01.05-.02.02,0,.04-.01.05-.02l.03.03s-.04.03-.04.06c.05.04.06.07.05.1,0,0,.02,0,.03,0,.02,0,.03,0,.03,0s.03,0,.06,0c.04,0,.06,0,.07,0s.02,0,.02.03v.03s.04.02.04.04c-.01.02-.02.04,0,.05.05-.01.07.01.07.08h.04s.02-.01.04-.04c.03-.06.05-.1.06-.13.02,0,.03-.01.04-.02,0,0,.02-.02.04-.03,0,0,0,.01.01.02,0,0,.02.02.02.02.06-.05.12-.08.18-.1-.01,0,.02,0,.09-.02h.14s.02-.01.04-.02c.02,0,.03-.01.04-.01.01,0,.03,0,.04.02.02.01.03.02.04.02h.04c.05-.03.09-.06.11-.09.02-.03.03-.07.04-.14.01-.01.03-.02.06-.02,0-.02.01-.04.02-.05h0Zm-.75-.57h0s-.03,0-.03,0v.02l.04-.02h0Zm.75-.15v-.02s-.05.04-.05.04v.02s.05-.04.05-.04h0Zm14.47-6.19s-.03,0-.05-.01c-.02,0-.04-.01-.05-.01-.03,0-.05.01-.07.04v.06s.02,0,.04,0c.02,0,.04,0,.05,0,.03,0,.06-.03.09-.09h0Zm-.34-.18h-.02s-.02.03-.02.03h.02s.02-.03.02-.03h0Zm-.03.08s-.02.04-.05.04c0,0,0,0,0,.03,0,.02,0,.03,0,.04,0,0,.01-.02.02-.05,0-.03,0-.05,0-.06h0Zm-.94-.46c0-.05-.03-.08-.1-.08-.06,0-.09.04-.09.12v.05s.02,0,.14,0c.03-.06.05-.1.05-.1h0Zm.75,1.05h-.02s-.02.03-.02.03h.02s.02-.03.02-.03h0Zm-3.26-1.1v-.06h-.03v.06h.03Zm0,.15v-.04h-.03v.04h.03Zm-.05.09v-.04h-.02v.04h.02Zm-.15.02l-.02-.05h-.02s.02.05.02.05h.02Zm.1.12l-.02-.09s-.02.03-.03.05c-.01.02-.02.04-.02.04h.03s.03,0,.04,0h0Zm-.22-.14v-.02h-.05v.02h.05Zm.05.14h-.06s.04.04.04.05c0,0,0-.01,0-.02,0,0,0-.02,0-.02h0Zm-.4,0l-.02-.14s-.02.03-.03.06c-.02.03-.03.05-.03.05.04.01.07.02.09.02h0Zm1.94,2.03v-.03s-.03.02-.03.02v.02s.03,0,.03,0h0Zm-2.25-1.95l-.02-.08h-.03l.02.08h.03Zm2.11,2.14l-.02-.02-.07.07.02.02.07-.07h0Zm-2.02-1.01v-.04h-.03v.04h.03Zm4.85-.73s-.01,0-.02.01-.02.01-.03.01-.04-.02-.09-.05c-.05-.04-.09-.05-.11-.05-.14,0-.25.06-.34.18-.02-.02-.03-.03-.02-.03-.01,0-.03.01-.06.04-.03.03-.05.05-.07.05,0,0,.02,0,.04,0,.02,0,.03,0,.04,0,0-.01.01-.03.04-.06,0,.02,0,.04,0,.06.05-.1.11-.15.19-.16,0,.03-.03.08-.07.15-.04.08-.06.14-.06.18,0,.03,0,.05,0,.07-.04.05-.07.07-.09.08-.01-.03,0-.06.02-.1l-.04.03c-.08-.04-.14-.06-.19-.06.01.02.02.03.02.03-.07.1-.11.17-.14.22-.14.16-.26.28-.34.37-.12.16-.21.29-.28.38-.08.11-.14.17-.16.19-.03-.03-.05-.04-.04-.04,0,0-.01,0-.02,0,0,0,0-.02.01-.03,0-.02.01-.02.01-.02.07-.07.12-.14.16-.19,0-.03,0-.04,0-.05.06-.03.11-.08.14-.13.04-.06.07-.09.09-.12.03-.02.04-.05.04-.09.01,0,.03,0,.04.02v-.04c.08-.12.14-.2.19-.26.02-.03.04-.04.05-.05.05-.06.1-.12.16-.2.06-.07.1-.15.12-.22,0,.01,0,.02,0,.03,0-.01,0-.03,0-.04-.02-.04,0-.09.07-.14.01.03.02.04.03.05v-.02c.1-.06.16-.1.17-.11,0,0,0-.01,0-.02,0,0,0,0,0,0-.03-.03-.05-.06-.07-.07.02-.04.02-.06,0-.06-.03-.03-.04-.05-.04-.04,0,0,0-.03,0-.06-.05.06-.09.13-.14.21-.01-.01-.03-.02-.04-.02s-.02,0-.03.01c0,0-.02.01-.03.01,0,0-.02-.01-.05-.04.06-.11.1-.19.13-.24,0,0,.03-.03.09-.09.06-.06.09-.1.09-.13,0-.04-.03-.07-.1-.07-.03,0-.07.03-.1.08-.04.05-.07.1-.09.14-.02-.04-.05-.06-.08-.06-.02,0-.07.02-.14.05-.07.04-.11.06-.12.07-.07.11-.12.19-.16.24-.01-.02,0-.05,0-.09-.43.57-.72.95-.88,1.15,0,.02,0,.04,0,.05-.06.04-.12.1-.18.19-.04.05-.07.09-.09.11.03.03.05.06.04.08,0,.02-.03.05-.08.1-.05.05-.07.09-.06.11-.22.26-.39.46-.49.6l-.28-1.16c-.07-.44-.13-.84-.19-1.19,0-.03,0-.05,0-.06-.01-.05-.02-.11-.02-.2-.03,0-.06-.01-.09-.04.01-.02.02-.04.03-.05-.03.01-.05.03-.08.06h-.04s-.04-.06-.06-.06c-.01,0-.02,0-.02.01,0,0,0,0-.02,0,0,0-.02,0-.05-.02.04.1.02.17-.07.19-.04-.04-.07-.06-.08-.06,0,.03,0,.05-.03.07-.08-.04-.11-.06-.1-.06-.01,0-.02,0-.03,0,0,0-.02,0-.03,0-.04,0-.08-.04-.14-.12-.03-.04-.05-.09-.08-.14,0,0-.01.02-.02.04,0,.02-.03.03-.07.03.01.07.02.13.03.16-.04.02-.07.04-.08.06-.03.05-.04.08-.05.12,0-.01,0-.02,0-.03.01-.03.02-.06.03-.09,0-.04.03-.05.06-.05-.03-.02-.04-.04-.04-.05-.08,0-.13,0-.16,0-.03.02-.05.04-.06.07,0-.05,0-.08,0-.1,0,.02-.01.03-.04.03v.21c0,.08,0,.15,0,.18,0,0-.02,0-.04-.03,0,0,0-.07,0-.2,0,0-.02,0-.04.02.03.06.04.11.03.15-.02,0-.04,0-.05.02.03.03.05.04.06.05.02.06.03.12.04.17.01.17.02.25.02.25,0,.03-.01.06-.02.08.01.06.02.09.02.09h-.03s-.04.05-.04.08h.07s0-.02,0-.03c.05.06.07.16.06.3,0,0,0-.02,0-.05.07.19.11.34.14.43,0,.02,0,.09.05.22.05.23.08.39.1.5,0,0,.01,0,.02,0-.01.01,0,.08.02.21.05.21.09.37.13.48.03.19.06.32.09.38.03.08.06.13.08.15,0,0,0,.02-.01.03,0,.01-.01.02,0,.03.07.2.11.32.11.35,0-.08-.08.23-.24.92-.01.11-.02.19-.02.25-.03.14-.04.24-.04.3.03-.03.05-.02.05.02,0,0-.02.01-.03.02-.02,0-.03.01-.03.02.04.01.06.03.05.05-.01.01-.03.02-.04.02.01,0,.02,0,.02.02-.01.05-.02.09-.02.11.02-.01.03-.02.04-.01,0,0-.01.01-.01.02,0,0,0,.01,0,.02-.01,0-.03-.01-.04-.01.02.1.03.18.02.24,0,.02,0,.03,0,.03.01.02.02.04.02.05,0,.08,0,.15-.03.19l.06-.05.02.07s-.02.04-.03.06c-.02.02-.02.03-.02.04.02,0,.03.01.02.04-.01.01-.02.03-.02.04,0,0,.01,0,.02,0,0-.04,0,.04-.03.23,0,.01,0,.15,0,.42.05,0,.07.01.06.04-.03.1-.03.2,0,.28.03-.03.05-.03.06-.02v.14c0,.07.01.12.02.14.03.04.04.08.03.1.03,0,.03.03.02.08.01,0,.02,0,.03,0,0,0-.02,0-.04,0,.04.17.06.3.07.38,0,.08.07.14.18.19-.05-.08-.08-.14-.07-.18-.01-.02-.03-.03-.04-.03-.02-.08-.03-.13-.03-.16-.02-.03-.03-.05-.04-.08,0,0,0-.02,0-.06-.03-.08-.04-.14-.04-.17-.02-.06-.04-.11-.05-.14-.02-.1-.03-.21-.03-.31,0-.03,0-.08,0-.13,0-.05,0-.09,0-.09,0-.09,0-.15.01-.18,0-.03.02-.05.02-.05.01.05.02.08.03.12,0,.19,0,.29,0,.31.04.24.07.42.09.53.01.01.02.02.03.03.02.12.04.19.05.22,0,.04,0,.07,0,.1.06.11.09.19.11.25.09.09.17.16.23.2v-.06l-.1-.15s0-.03.02-.04c.09.08.14.15.18.2.03.01.06.02.07.03.03.05.05.09.07.12-.03-.08-.02-.15.05-.2.1.1.18.18.23.23-.04-.12-.06-.18-.06-.2h0s-.02-.04-.03-.15c0-.01,0-.03,0-.05-.05-.05-.07-.08-.07-.1,0-.03,0-.03,0-.02.04.03.06.05.06.07.07.14.1.2.1.2,0,.07.01.15.04.25-.02-.08-.03-.15-.02-.18h.02c.05.12.08.19.09.21h.02c-.04-.14-.07-.24-.1-.3,0-.09,0-.16,0-.2-.08-.18-.13-.28-.13-.3,0,0,0,0,0,0,0,0,0-.02,0-.03,0,0,.01-.02.02-.03,0-.02.02-.02.03-.02.07.12.1.23.1.31.03,0,.05,0,.06,0-.09-.3-.13-.51-.13-.61,0-.01,0-.04-.02-.08-.02-.04-.03-.06-.03-.07,0-.08.02-.14.07-.17.02.02.03.03.04.03v.04s0-.13-.01-.24c0-.12-.01-.18-.01-.18,0-.05,0-.11.02-.17.04.21.05.38.04.5.05,0,.08,0,.07,0-.02.03-.04.05-.06.06.03.08.04.15.04.22l.03-.03c.01.05.01.11,0,.16.01-.02.02-.01.02.02,0,.02,0,.03-.03.03-.05-.15-.09-.24-.1-.26,0,.08,0,.12,0,.1,0,.01-.02.02-.04.02v.09s.02-.05.03-.07c.04.15.06.25.06.31.02.01.03.02.04.03.03.04.05.11.07.19,0,0,0,0,.03,0h.04c-.06-.2-.09-.55-.09-1.06,0-.03.03-.51.08-1.44.01-.21.06-.43.13-.66.08-.32.15-.56.2-.72,0-.03,0-.08,0-.14.02-.03.04-.03.05-.02,0,0,0,0-.02,0-.01,0-.02-.01-.03-.02.05-.08.09-.14.12-.18.2-.39.55-.91,1.04-1.54.12-.15.21-.28.26-.37.11-.13.19-.22.25-.28.22-.3.49-.59.79-.87,0-.07.05-.23.15-.48h0Zm-3.07,7.96s-.05-.04-.06-.06c0,0,0,.02,0,.05v.04s.03,0,.05-.03h0Zm-.8.32s-.04-.05-.07-.05c.03.04.05.07.06.1,0-.03,0-.05,0-.05h0Zm3.74-8.24c-.04-.05-.08-.08-.12-.08-.02,0-.07.01-.14.04,0,0,.02.01.03.02.06-.01.1,0,.13.01.03.02.04.03.03.03,0,0,.02,0,.06-.03h0Zm-1.15-.15v-.05h-.03v.05h.03Zm.8.66s-.07-.05-.07-.07c-.01.03-.03.06-.06.11-.03.02-.05.05-.08.1-.03.05-.07.11-.11.2.12-.14.23-.25.32-.34h0Zm-.9-.58s0-.01-.01-.02c0,0-.02-.02-.02-.02-.05.07-.09.16-.15.28.04-.06.1-.14.19-.23h0Zm.12-.02s-.01,0-.03.01c-.02,0-.04.01-.05.01-.01.07-.07.16-.16.28-.07.08-.13.17-.2.25.05-.05.19-.23.43-.56h0Zm1.02.55h-.07c-.38.41-.66.75-.85,1.02l.92-1.02h0Zm-.93,1.04h-.03v.04s0,0,0,0l.02-.04h0Zm-.06.08h-.03s-.02.03-.02.03h.03s.02-.03.02-.03h0Zm-.1.13l-.02-.02-.03.06h.02s.03-.04.03-.04h0Zm-2.26-1.83v-.05h-.03v.05h.03Zm0,.81c-.01-.06-.03-.17-.06-.33-.03.03-.04.05-.03.07,0,.04.02.09.03.15.02.03.04.06.06.11h0Zm-.9-1s-.01-.03-.04-.06c0,.05,0,.11-.03.18.05-.05.07-.09.07-.13h0Zm-.18.1h-.03v.1s0,0,0,0l.02-.1h0Zm1.26,1.7v-.04h-.02v.04h.02Zm.43.65h-.02s-.02.03-.02.03h.02s.02-.03.02-.03h0Zm-.31-.15l-.06-.23h-.02l.06.23h.02Zm.28.2h-.02s-.02.03-.02.03h.02s.02-.03.02-.03h0Zm.54.52h-.04s-.07.08-.08.12c0,0,.02-.02.05-.05.03-.03.05-.05.07-.07h0Zm-.8-.64v-.04h-.03v.04h.03Zm.8.47c-.12.09-.25.22-.39.4.03.03.05.05.06.05.07-.1.18-.24.33-.44h0Zm-1.61,1.89v-.04h-.03v.04h.03Zm-.14.56v-.07s-.04.03-.04.05c.01.01.03.02.04.02h0Zm-.04.18l-.04.02v.07s.04-.05.04-.09h0Zm-.04.29v-.18h-.02v.18h.02Zm.95,1.07s-.03-.08-.03-.11c-.02.04-.03.08-.04.12,0,.14,0,.29.02.45,0,0,.02-.01.04-.02,0-.05,0-.19,0-.44h0Zm0,.57s-.02-.02-.05-.09v.18s.05-.06.05-.1h0Zm.06.34s-.05-.08-.06-.2c0,0-.02,0-.04,0,0,.03.01.07.02.13,0,.06.02.1.02.13,0,0,.02-.02.05-.06h0Zm-.58-.5v-.07h-.02v.07h.02Zm0,.07v-.05h-.02v.05h.02Zm.02.09v-.04h-.03v.04h.03Zm.52,1.06l-.02-.04h-.02s.02.04.02.04h.02Zm-.06.03v-.08h-.04l.02.08h.02Zm3.88-2.26v-.02s-.05.04-.05.04v.02s.05-.04.05-.04h0Zm-.75.15h0s-.03,0-.03,0v.02l.04-.02h0Zm1.31.57s-.05.01-.04.01c-.02,0-.04-.02-.06-.05.01-.02.02-.03.02-.04,0-.02,0-.04,0-.05.01-.05.02-.08,0-.12.03-.03.05-.05.07-.06-.05,0-.06,0-.05,0,0,0,0-.01-.03-.04.02-.01.04-.02.07-.02-.01-.04-.02-.07-.02-.11h-.05s.02.04,0,.05c-.02,0-.03-.02-.04-.04.01-.02.02-.04,0-.05-.03,0-.05,0-.04,0,0,0-.01-.02-.04-.07-.03.03-.04.04-.04.04-.02,0-.02,0,0,0-.05-.05-.08-.08-.09-.09.01,0,.01-.01,0-.04-.01-.03-.02-.04-.02-.05,0,.01-.02.02-.03.03-.02,0-.02.01-.02.01-.01-.01-.02-.02-.03-.03,0,.01,0,.02-.02.02,0,0-.02,0-.02-.02,0-.01-.02-.02-.03-.02,0,0-.03,0-.06.02-.03.02-.05.02-.06.02-.04,0-.07-.03-.09-.09-.02.01-.04.02-.06.02-.05.05-.08.07-.09.08-.19.03-.33.05-.41.06h.05s.02,0,0,0c0,0,0,0,0,0,0,0,.01,0,.04,0,.03,0,.05,0,.06,0h0c-.07.04-.11.07-.15.09-.06.03-.12.04-.16.04,0,0-.01,0-.02-.02.05-.02.09-.03.12-.04-.1.03-.15.04-.15.04,0,0,0,0,0-.01h-.05c-.06.04-.1.06-.12.06,0,0-.01,0-.04,0,0,.01,0,.03-.03.06.03,0,.06,0,.08.02-.02.05-.03.07-.04.07-.01,0-.02,0-.01,0,0,0,0,0-.01,0s-.03.03-.05.09h.04s.03,0,.03,0c.01,0,.02.01.02.02,0,.03,0,.05,0,.06,0,0,0,.02,0,.03s-.02.04-.05.07c.06.06.08.09.08.1.03-.03.04-.04.05-.04.02,0,.03,0,.02.01v.03c-.06.07-.1.12-.13.14h.07l.03-.03s0,.02,0,.07c.01,0,.03-.01.05-.02.02,0,.04-.01.05-.02l.03.03s-.04.03-.04.06c.05.04.06.07.05.1,0,0,.02,0,.03,0,.02,0,.03,0,.03,0s.03,0,.06,0c.04,0,.06,0,.07,0s.02,0,.02.03v.03s.04.02.04.04c-.01.02-.02.04,0,.05.05-.01.07.01.07.08h.04s.02-.01.04-.04c.03-.06.05-.1.06-.13.02,0,.03-.01.04-.02s.02-.02.04-.03c0,0,0,.01.01.02,0,0,.02.02.02.02.06-.05.12-.08.18-.1-.01,0,.02-.01.09-.02.06,0,.1,0,.14,0,0,0,.02-.01.04-.02.02,0,.03-.01.04-.01.01,0,.03,0,.04.02.02.01.03.02.04.02h.04c.05-.03.09-.06.11-.09.02-.03.03-.07.04-.14.01-.01.03-.02.06-.02,0-.02.01-.04.02-.05h0Zm-1.5-.43s-.05.01-.08.06c0,0,.02-.01.03-.02.01,0,.03-.02.05-.04h0ZM6.22,26.79h.8v-5.26l1.81,5.26h.75l1.83-5.17v5.17h.8v-6.18h-1.11l-1.51,4.3c-.15.44-.26.77-.34.99-.06-.2-.16-.51-.3-.91l-1.48-4.37h-1.24v6.18h0Zm6.62,0h.88l.68-1.87h2.64l.73,1.87h.94l-2.55-6.18h-.91l-2.4,6.18h0Zm1.8-2.54h2.14l-.65-1.71c-.2-.52-.35-.95-.45-1.29-.09.4-.2.8-.35,1.19l-.69,1.81h0Zm4.74,2.54h.83v-2.74h.96c.21,0,.37,0,.46.03.13.03.26.09.38.16.12.08.26.22.42.41.16.2.36.48.6.85l.83,1.28h1.04l-1.08-1.68c-.21-.33-.44-.6-.69-.82-.11-.1-.28-.2-.5-.31.6-.08,1.04-.27,1.33-.57.29-.3.43-.67.43-1.11,0-.34-.09-.65-.26-.93-.17-.28-.41-.48-.7-.59-.29-.11-.71-.17-1.27-.17h-2.78v6.18h0Zm.83-3.45h1.78c.38,0,.67-.04.89-.12.21-.08.37-.2.48-.37.11-.17.17-.35.17-.55,0-.29-.11-.53-.32-.72-.21-.19-.55-.28-1.02-.28h-1.98v2.04h0Zm7.08,3.45h.83v-2.62l2.5-3.56h-.97l-1.21,1.82c-.27.4-.5.76-.69,1.09-.2-.35-.41-.69-.64-1.04l-1.24-1.87h-1l2.42,3.56v2.62h0Zm-12.37,4.5h.31l.35-1.3.07.29.27,1.01h.3l.54-1.7h-.28l-.3.98-.1.33-.08-.32-.26-.98h-.3l-.27.99c-.06.21-.08.33-.09.35l-.1-.36-.27-.98h-.3l.52,1.7h0Zm1.98-.85c0,.29.07.5.22.66.15.15.34.23.58.23.15,0,.29-.03.41-.1.13-.07.22-.17.29-.29.07-.12.1-.3.1-.51,0-.27-.08-.48-.22-.63-.15-.15-.34-.23-.58-.23-.21,0-.39.06-.54.19-.18.15-.27.38-.27.7h0Zm.3,0c0,.22.05.38.14.49.1.11.22.16.36.16s.27-.05.36-.16c.1-.11.14-.27.14-.49,0-.21-.05-.37-.15-.47-.1-.11-.22-.16-.36-.16s-.27.05-.36.16c-.1.11-.14.27-.14.49h0Zm1.65.85h.29v-.89c0-.12.02-.23.05-.33.02-.07.06-.12.11-.16.05-.04.11-.06.17-.06.07,0,.14.02.21.06l.1-.26c-.1-.06-.2-.09-.3-.09-.07,0-.13.02-.19.06-.06.04-.12.12-.19.24v-.26h-.26v1.7h0Zm1.1,0h.29v-2.34h-.29v2.34h0Zm1.85,0h.27v-2.34h-.29v.84c-.05-.07-.12-.13-.2-.17-.08-.04-.17-.06-.28-.06-.14,0-.27.04-.38.11-.11.07-.2.18-.26.32-.06.14-.09.29-.09.46s.03.33.09.46c.06.13.15.24.27.31.11.07.24.11.38.11.21,0,.37-.08.48-.25v.22h0Zm-.92-.85c0,.22.05.38.14.49.09.11.2.16.33.16s.24-.05.33-.15c.09-.1.13-.26.13-.47,0-.23-.05-.4-.14-.51-.09-.11-.2-.16-.34-.16s-.24.05-.33.16c-.09.1-.13.27-.13.49h0Zm-14.53-.33v.16h5.86v-.16h-5.86Zm18.48,0v.16h5.86v-.16h-5.86Zm6.97-20.45h.22v-.79h.26c.06,0,.1,0,.12,0,.04,0,.07.02.1.05.03.02.07.06.11.12.04.06.1.14.16.25l.22.37h.28l-.29-.49c-.06-.1-.12-.17-.18-.24-.03-.03-.08-.06-.14-.09.16-.02.28-.08.36-.17.08-.09.12-.19.12-.32,0-.1-.02-.19-.07-.27-.05-.08-.11-.14-.19-.17-.08-.03-.19-.05-.34-.05h-.75v1.79h0Zm.22-1h.48c.1,0,.18-.01.24-.03.06-.02.1-.06.13-.11.03-.05.04-.1.04-.16,0-.08-.03-.15-.09-.21s-.15-.08-.27-.08h-.54v.59h0Zm.39-1.5c-.86,0-1.56.74-1.56,1.64s.7,1.64,1.56,1.64,1.56-.74,1.56-1.64-.7-1.64-1.56-1.64h0Zm0,.17c-.77,0-1.4.66-1.4,1.47s.63,1.48,1.4,1.48,1.4-.66,1.4-1.48-.63-1.47-1.4-1.47Z"/></svg>