<?xml version="1.0" encoding="UTF-8"?><svg id="_Слой_1" xmlns="http://www.w3.org/2000/svg" viewBox="0 0 6.0202 6.02"><defs><style>.cls-1{fill:#fff;}.cls-2{fill-rule:evenodd;}</style></defs><rect class="cls-1" width="6.0202" height="6.02" rx=".6744" ry=".6744"/><path class="cls-2" d="m2.4706,3.0986c.1231.1069.37.3036.5004.4076.0121.0096.0246.021.0362.0286.0355-.0093.4624-.3787.5483-.4362l.6117.5851c.0272.0275.057.0612.0856.0853l.1295.1241c.0179.0182.0298.0241.0474.0411.03.029.0555.0559.0853.0856l.1738.1681c.0167.0168.0277.0216.0445.038.0161.0162.0277.0284.0439.0445.0309.0306.0541.0562.0879.0831.0195.0156.0748.0703.0876.0893-.0134.0031-.0136.0059-.0295.0059H1.1089c-.0204,0-.023-.0045-.0414-.0059l.2163-.2081c.0357-.0298.0898-.0961.1307-.129l.2616-.2511c.0927-.0927.2064-.1933.3067-.2948.0181-.0182.0298-.0241.0473-.0411l.2591-.2537c.017-.0156.027-.0207.0445-.038.0374-.038.0981-.1023.1369-.1284h0Zm1.2793-.1593l.2608.2523c.0295.0258.0573.0569.0856.0853l.8255.79c.0365.0337.1805.1828.2137.2049.0025-.0309.0116-.0447.0116-.0824V1.8309c0-.0314-.0059-.0516-.0116-.0765-.0306.0162-.2143.1828-.2628.2205l-.1749.1494c-.028.0267-.0575.0471-.0856.0737l-.1942.1653c-.0093.0079-.0121.0125-.0212.0201l-.347.2957c-.0093.0076-.0124.0119-.0212.0201-.0111.0096-.0125.0088-.0233.0178l-.2554.2223h0Zm-2.8652,1.3325c.0181-.0121.0292-.0272.0456-.0428.0167-.0161.0272-.0209.0445-.0382l.1738-.1681c.0272-.0272.0569-.0612.0856-.0851l.1769-.1652c.0303-.0292.0555-.0559.0853-.0856l.1709-.1653c.0176-.017.0292-.0229.0473-.0411l.4746-.4569c.0241-.0244.0637-.0584.081-.0842l-.2168-.1899c-.0111-.01-.0122-.0088-.0233-.0182l-.0856-.0734c-.0076-.0068-.0099-.0105-.0181-.0173l-.76-.6488c-.0419-.0375-.2602-.2316-.2817-.2373-.0057.0249-.0117.0451-.0117.0765v2.3585c0,.0377.0091.0515.0117.0824h0Zm.1768-2.6943l.0635.0544c.0139.0131.0173.0156.0318.0273l.3013.2588c.0128.0119.0167.0124.0292.0238.0916.0813.2174.1814.301.2591l.2416.2063c.1034.0961.2979.2461.3979.339l.4601.3773c.0204.0179.0403.0323.0621.0499.0238.019.0385.0326.0629.0491.1922-.167.428-.3396.6177-.5086l.3948-.3362c.0134-.0122.0137-.0127.0287-.0243l.0924-.0788c.0122-.0111.015-.0151.0281-.025.0136-.0105.0178-.0164.0311-.0278l.4235-.3605c.0114-.0091.0165-.0162.0278-.0253.0145-.0116.0179-.0141.0318-.0272l.2698-.2313c-.0184-.0014-.021-.0059-.0414-.0059H1.1146c-.0295,0-.0264.0053-.0531.0059Z"/></svg>