<?xml version="1.0" encoding="UTF-8"?><svg id="_Слой_1" xmlns="http://www.w3.org/2000/svg" viewBox="0 0 5.3 4.68305"><defs><style>.cls-1{fill-rule:evenodd;}</style></defs><path class="cls-1" d="m0,1.4182c0,.2775.02411.4736.1449.7143.0385.0762.0859.1599.136.2262.1715.2265.6747.703.8864.9147l1.2629,1.2632c.20091.2009.252.1879.4345.0051.3918-.3915,1.9945-1.9676,2.1515-2.1756.15391-.2044.2838-.5403.2838-.8031,0-.2888-.0046-.3379-.0995-.6148-.0428-.125-.1338-.2679-.2109-.3685-.0842-.11-.1798-.2024-.2929-.2869-.1-.0748-.1635-.1088-.2729-.1618-.0386-.0188-.0661-.0244-.1058-.0394-.4362-.1639-.9813-.0927-1.35889.1862-.05811.0428-.10521.0822-.161.129-.05471.0456-.09071.1034-.148.1417-.04081-.0272-.07031-.0649-.10631-.1009-.2715-.2716-.6369-.4476-1.053-.4476-.2101,0-.4615.055-.60069.1242-.16721.083-.19281.096-.33561.2023C.3303.4938.1205.8164.0496,1.095c-.0221.087-.0496.2112-.0496.3232Z"/></svg>