<?xml version="1.0" encoding="UTF-8"?><svg id="_Слой_1" xmlns="http://www.w3.org/2000/svg" viewBox="0 0 5.27997 5.2801"><defs><style>.cls-1{fill-rule:evenodd;}</style></defs><path class="cls-1" d="m.6602,4.6304c.0382-.1607.307-.7359.2347-.8416-.1769-.2583-.2741-.4811-.3439-.8124-.1326-.6299.0624-1.2776.4561-1.7734C1.8147.1857,3.2938.1854,4.204,1.025c.9386.866.8507,2.3454-.0929,3.1785-.4734.4178-1.1325.5955-1.7433.5037-.3337-.0502-.5466-.1434-.8363-.3098-.1151-.0661-.6939.2293-.8713.233h0ZM2.5877,0c-.7438.0303-1.4743.375-1.9652,1.0145C.019,1.8003-.0703,2.863.3676,3.7267c.1381.2724.0873.195-.0133.4949-.1091.3254-.275.7367-.3543,1.0585.1528-.0136.8631-.2727,1.0664-.3362.2267-.0712.2928-.1536.5113-.0451.1534.076.3538.1432.5205.1809.7818.1769,1.5559.0056,2.1968-.4862,1.2374-.9487,1.3125-2.7827.205-3.8639-.4768-.4654-1.0848-.7047-1.698-.7296h-.2143Z"/><path class="cls-1" d="m1.7767,1.3986c-.3526.0575-.3991.6582-.2763.9479.1173.277.3744.5831.5856.7963.3696.3736,1.4709.9975,1.8502.3699.1315-.2177.1148-.339-.0964-.4425-.0893-.0431-.4-.2137-.4802-.195-.2585.0606-.0947.6128-.80929.0717-.13011-.0987-.24521-.2177-.341-.3498-.19981-.2764-.14121-.1922.02179-.4176.1225-.1695.0023-.318-.0689-.4847-.0887-.2078-.0813-.3455-.3855-.2962Z"/></svg>