<?xml version="1.0" encoding="UTF-8"?><svg id="_Слой_1" xmlns="http://www.w3.org/2000/svg" viewBox="0 0 6.10536 6.11191"><defs><style>.cls-1{fill:#989797;fill-rule:evenodd;}</style></defs><path class="cls-1" d="m4.53674,2.26837c0-1.25281-1.01556-2.26837-2.26837-2.26837S0,1.01556,0,2.26837s1.01562,2.26831,2.26837,2.26831,2.26837-1.01556,2.26837-2.26831Zm-2.26837,1.69855c-.93811,0-1.69861-.7605-1.69861-1.69855,0-.93811.7605-1.69861,1.69861-1.69861s1.69861.7605,1.69861,1.69861c0,.93805-.7605,1.69855-1.69861,1.69855Z"/><path class="cls-1" d="m5.93695,5.13062l-.46039-.46045c-.00995-.00983-.01984-.02051-.02966-.03033-.01495-.01495-.04633-.04602-.08521-.08447l-.76068-.76074c-.04364-.04517-.07001-.07379-.08038-.08704-.20245.33551-.48798.60999-.8299.80267l1.43329,1.43329c.22449.22449.58844.22449.81293,0,.22455-.22449.22455-.58844,0-.81293Z"/></svg>