<?xml version="1.0" encoding="UTF-8"?><svg id="_Слой_1" xmlns="http://www.w3.org/2000/svg" viewBox="0 0 4.3954 5.13028"><defs><style>.cls-1{fill-rule:evenodd;}</style></defs><path class="cls-1" d="m.9159,1.22718c0,.3992.1.69.37471.9647.63039.6304,1.68549.4416,2.067-.3541.30189-.6287.03889-1.4034-.60661-1.7132C2.2649-.10872,1.6772-.00872,1.29061.37738c-.21031.2101-.37471.5278-.37471.8498h0Zm-.9159,3.6284v.1145c0,.0714.0887.1602.1604.1602h4.0745c.0718,0,.1605-.0888.1605-.1602,0-.4878-.1216-.824-.3685-1.1883-.12329-.1817-.2996-.3569-.4808-.4805-.0261-.0175-.0442-.0328-.0672-.0476-.026-.0167-.0518-.0306-.0788-.047-.0513-.0306-.098-.0536-.157-.0834-.447-.2253-.8286-.1907-1.3201-.1907-.3467,0-.81039.1692-1.0746.3679-.04279.0323-.09779.0686-.13579.1043-.25991.2446-.35491.349-.52181.68-.0896.1781-.1908.51-.1908.7708Z"/></svg>