<?xml version="1.0" encoding="UTF-8"?><svg id="_Слой_1" xmlns="http://www.w3.org/2000/svg" viewBox="0 0 5.71244 5.20197"><defs><style>.cls-1{fill-rule:evenodd;}</style></defs><path class="cls-1" d="m1.91113,4.09778c-.30493,0-.55206.24719-.55206.55212s.24713.55206.55206.55206.55212-.24713.55212-.55206-.24719-.55212-.55212-.55212Z"/><path class="cls-1" d="m4.32306,4.09778c-.30493,0-.55212.24719-.55212.55212s.24719.55206.55212.55206.55212-.24713.55212-.55206-.24719-.55212-.55212-.55212Z"/><path class="cls-1" d="m5.38232.8421H1.3476s-.07227-.52631-.14935-.67706C1.12122.01428.92462.00348.92462.00348l-.21948-.00153c-.00342-.00006-.00629-.00195-.0097-.00195H.23816c-.13153,0-.23816.10663-.23816.23816v.19092c0,.13153.10663.23816.23816.23816h.47296l.5365,2.66968s.06702.60052.46021.61871h3.12482c.12286,0,.22241-.09955.22241-.22235v-.10321c0-.12286-.09955-.22241-.22241-.22241H1.81628l-.07489-.49084h.9267l1.65497.00153-.00232-.00153h.4715c.20966,0,.39587-.13385.46277-.33252l.43994-1.30713c.07196-.21375-.08704-.43506-.31262-.43506Z"/></svg>