<?xml version="1.0" encoding="UTF-8"?><svg id="_Слой_1" xmlns="http://www.w3.org/2000/svg" viewBox="0 0 5.2798 5.2798"><defs><style>.cls-1{fill-rule:evenodd;}</style></defs><path class="cls-1" d="m4.2145,3.9336c-.0397.0839-.11.1406-.1879.1871-.1384.0825-.2861.1397-.4459.1633-.0292.0042-.059.0051-.0856.0073-.125-.007-.2449-.0266-.3597-.07-.1429-.0541-.2875-.1049-.4272-.1661-.1744-.0762-.3342-.1791-.4856-.2948-.231-.1766-.4382-.3778-.6236-.6018-.161-.1944-.3019-.4031-.3991-.6369-.0621-.1491-.1171-.3014-.1676-.4544-.0765-.2313-.0507-.4567.0522-.6755.0357-.0763.0734-.1511.127-.2169.0524-.0643.1165-.1097.1956-.1357.0893-.0295.1794-.0491.2735-.0508.038-.0006.068.0105.0887.0439.0479.0789.097.1568.144.2359.0814.1369.148.2818.2384.4136.0553.081.0474.1326-.0175.2055-.0137.0153-.0273.0309-.0428.0442-.0644.0544-.1302.1069-.1939.1619-.0338.0292-.065.0615-.0961.0935-.0394.0408-.0479.0887-.0219.1383.0386.0737.0788.1466.1214.218.1414.2398.3169.451.5346.6262.1145.0924.2367.1738.3654.2455.0476.0266.0952.053.1431.0788.0601.0323.1134.0192.1579-.0289.0519-.0559.1009-.114.1525-.1701.0507-.0556.1018-.1111.1551-.1641.0467-.0465.1026-.0533.1598-.0199.0502.0292.0973.0638.148.0924.1471.0834.2957.1641.4431.2472.0317.0179.0609.0408.0918.0607.0283.0181.0403.045.0397.0773-.0023.1202-.0261.2365-.0774.3453h0ZM2.6399,0C1.1817,0,0,1.182,0,2.6399c0,1.4581,1.1817,2.6399,2.6399,2.6399,1.4578,0,2.6399-1.1818,2.6399-2.6399,0-1.4579-1.1821-2.6399-2.6399-2.6399Z"/></svg>