<?xml version="1.0" encoding="UTF-8"?><svg id="_Слой_1" xmlns="http://www.w3.org/2000/svg" viewBox="0 0 6.0202 6.0202"><defs><style>.cls-1{fill:#fff;}.cls-2{fill-rule:evenodd;}</style></defs><rect class="cls-1" x="0" width="6.0202" height="6.0202" rx=".6744" ry=".6744"/><path class="cls-2" d="m2.2101,1.8473c.0672.0057.1205.0278.1662.0573.0535.0349.068.0652.0887.1344.0666.2245.0391.4901.015.7197-.0057.0547-.015.0975-.0343.1423-.0193.0453-.03.0618-.0581.072-.1015.0368-.2018-.0814-.2546-.1463-.0742-.0915-.1584-.2421-.214-.3532-.0244-.0487-.045-.0805-.0683-.127l-.1828-.3844c-.0236-.0527-.0309-.0878-.0686-.1269-.0845-.0876-.1503-.0621-.3002-.0624-.0737,0-.5122-.0057-.5641.0034-.0286.0051-.0485.0133-.0675.0255-.0227.0147-.034.0343-.038.0567v.0405c.0097.0684.0607.1477.0797.1942.123.2979.3387.684.5136.974.1327.22.3376.4949.5009.6894.097.1151.0737.0774.1497.1482.053.0496.1043.089.1658.1316.4612.3189.6338.3217,1.1662.3217.237,0,.2032-.1468.2143-.2877.0054-.0706.0229-.1469.0487-.2021.0139-.0295.0304-.0573.0505-.08.0961-.1083.1928-.0348.2806.0499l.1735.1891c.068.0876.231.2455.3387.2937.186.0824.3946.0362.5766.0371.1834.0008.5023.0334.5023-.1395,0-.1091-.0558-.1661-.0983-.2364-.0806-.1332-.4133-.4674-.5409-.5751-.0306-.0258-.1327-.1375-.1327-.2115,0-.1397.2444-.4181.3467-.555.1171-.1571.6985-.8677.267-.8677l-.8144.0054c-.043-.0048-.0742.0008-.104.0246-.0289.0233-.0431.0477-.0578.0817-.0743.1703-.1185.2999-.2194.4688-.0187.0312-.0272.0525-.0465.0839l-.1619.2563c-.0195.0295-.0371.0516-.0578.0819-.0351.0524-.1743.197-.2214.197-.1343,0-.1394-.2018-.1394-.3441l.0175-.7053c-.0192-.1837-.079-.2265-.231-.2525-.1893-.0326-.6089-.0244-.7883.0119-.0774.0156-.1956.0731-.1979.1649Z"/></svg>