<?xml version="1.0" encoding="UTF-8"?><svg id="_Слой_1" xmlns="http://www.w3.org/2000/svg" viewBox="0 0 6.0202 6.0203"><defs><style>.cls-1{fill:#fff;}.cls-2{fill-rule:evenodd;}</style></defs><rect class="cls-1" x="0" width="6.0202" height="6.0203" rx=".6743" ry=".6743"/><path class="cls-2" d="m.7398,2.9498c0,.0558.0295.0839.0709.1088.0382.023.0754.0326.1216.0479.0853.0278.1698.0511.2554.08.0623.0207.1287.038.1905.0586l.324.1007c.0428.015.0839.0255.1267.0399.0521.0176.0417.0117.0859-.0158l.5944-.3719c.0779-.0516.1811-.1146.2594-.1625.0181-.0107.0337-.0207.051-.032l.5698-.3566c.0175-.011.0343-.0212.0515-.032l.076-.0476c.129-.0811.2599-.1599.3884-.2427l.2077-.1304c.0377-.0246.0794-.049.1338-.049.0536,0,.042.0453.0128.072l-.1528.1366c-.0079.0077-.0116.0094-.0196.0164-.0365.0355-.0768.0678-.1133.1035-.0077.0068-.0117.0088-.0196.0159-.0357.036-.076.0686-.1134.1037l-.2285.2036c-.0368.0357-.0776.0683-.1142.1037l-.2299.2052c-.0074.008-.0099.0097-.0184.0165-.0074.0059-.0113.0122-.019.0184l-.3614.3237c-.0295.0306-.0975.0848-.1324.1194l-.1534.1372c-.0337.0345-.0989.0847-.1329.1196-.0164.017-.0275.0139-.0272.0419l-.0167.2387c-.0071.0649-.0083.1375-.0156.2021l-.019.271c-.0009.023-.0029.0468-.0048.0675-.0029.0229-.0009.0459-.0046.068-.0031.0218-.0028.0459-.0039.0686-.0012.0198-.0054.0459-.0054.0672.0331,0,.0655-.0062.0947-.0182.0113-.0042.0167-.0073.0269-.0133.032-.0176.0578-.0448.083-.07.0128-.0127.0244-.0255.0377-.0377l.1182-.1128c.0077-.0074.0128-.0097.0202-.0173l.2551-.2444c.0451-.0447.0317-.0453.0762-.013.0119.0085.0216.0167.0338.025l.1723.1258c.0122.0094.0235.017.0357.0264.1367.1029.2787.201.415.3041l.1381.1009c.0127.0086.0221.0168.034.0253.0558.0411.1176.0944.1828.1182.0845.0306.171.0323.2316-.0428.0717-.0887.0836-.2424.11-.3521.0079-.036.0142-.0714.023-.1086l.0464-.2168c.0451-.2171.0956-.4334.1387-.6508l.0575-.2702c.0283-.1182.0561-.2594.0808-.3781l.0465-.2169c.0329-.1443.0584-.2897.0924-.434l.0232-.1082c.0284-.1457.0624-.2878.0924-.4337.0193-.0942.0341-.2104-.0326-.2892-.03-.0354-.0793-.0598-.1414-.0598-.0644,0-.1466.038-.205.0607l-.1961.0754c-.0439.0176-.0862.0329-.1298.0502l-.521.1992c-.1296.0493-.2594.1021-.3898.1491l-.5204.1993c-.1304.0524-.2589.0967-.3884.1488l-.3909.1491c-.087.0352-.1729.0649-.2602.0998l-.2599.0998c-.0224.0091-.0414.0161-.0641.0244-.023.0085-.0434.0173-.0658.0255-.0864.0312-.174.0674-.2605.0995l-.2599.0997c-.0607.0241-.1247.0533-.1653.1032-.0105.0136-.0289.0403-.0289.0627Z"/></svg>