<?xml version="1.0" encoding="UTF-8"?><svg id="_Слой_1" xmlns="http://www.w3.org/2000/svg" viewBox="0 0 6.0202 6.0202"><defs><style>.cls-1{fill:#fff;}.cls-2{fill-rule:evenodd;}</style></defs><rect class="cls-1" x="0" width="6.0202" height="6.0202" rx=".6744" ry=".6744"/><path class="cls-2" d="m4.71,4.407c-.0428.0907-.1188.1517-.2029.2018-.1491.0891-.309.1511-.4814.1764-.0317.0045-.0637.0056-.0924.0079-.1352-.0077-.2645-.0286-.3886-.0754-.1542-.0584-.3101-.1134-.4609-.1794-.1885-.0825-.3609-.1936-.5241-.3184-.2495-.1905-.4734-.4079-.6733-.6497-.174-.21-.326-.4351-.4311-.6877-.0669-.1607-.1262-.3251-.1809-.4906-.0827-.2495-.055-.4927.0562-.7291.0388-.0825.0793-.163.1374-.2341.0564-.0695.1256-.1185.2109-.1466.0964-.0317.1939-.053.2954-.0547.0411-.0009.0737.0111.0958.0473.0516.0851.1049.169.1556.2546.0876.1477.1596.3044.2571.4467.0598.0873.0513.1432-.0187.2217-.0147.0164-.0295.0334-.0465.0476-.0694.0587-.1403.1157-.2092.1749-.0362.0318-.07.0666-.1037.1012-.0425.0437-.0516.0955-.0235.1491.0416.0797.085.1582.1306.2353.1531.2588.3425.487.5775.6761.1238.0997.2556.1876.3943.265.0515.0289.1029.0573.1547.085.0649.0349.1222.0207.1707-.0311.0558-.0604.1088-.1231.1644-.1837.0547-.0598.1097-.1199.1672-.1769.0508-.0505.1109-.0576.1727-.0216.0544.0315.1051.0689.1598.0998.1588.0899.3192.1772.4785.2668.0343.0192.0655.0442.099.0654.0306.0199.0433.0485.0428.0834-.0023.1301-.0281.2557-.0834.373Z"/></svg>