<?xml version="1.0" encoding="UTF-8"?><svg id="_Слой_1" xmlns="http://www.w3.org/2000/svg" viewBox="0 0 32.8234 31.3963"><defs><style>.cls-1{fill:#fff;}.cls-2{fill-rule:evenodd;}</style></defs><rect class="cls-1" x="0" width="32.8234" height="31.3963" rx="1.7873" ry="1.7873"/><g><path class="cls-2" d="m22.5694,21.8577c.2146-.1162,2.4497-.0748,2.7323.0037.0723.7738.0941,1.9828-.011,2.7408-.953.0462-1.7677.0717-2.721-.0164-.089-.3558-.0879-2.3704-.0003-2.7281h0Zm-.94-1.8777c.2336-.0646.5879-.0184.7566-.1828.1675-.163.1772-.5088.0003-.6772-.2115-.201-1.402-.1998-1.6141.0009-.3401.3217.0111,2.4054-.199,2.6228-.1442.1497-.6686.0638-.8209.0162-.1241-.3974.0159-.8748-.5258-.8833-.5312-.0082-.4691.4805-.4691.9346,0,.5049-.0774.8892.4683.9394.4424.0406.9674-.0572,1.3952.0471l-.0284.8453c-.3937.1111-.8903-.0176-.8901.519.0006.5267.4802.4192.8887.5145.0941.3764-.0215.7395.3472.8606.2081.0683.8547.0357,1.1109.0357.5661,0,1.865-.0658,2.3026.0451.0953.4008.0077.9161.0496,1.3677.0533.5714.4519.398.889.5176.0748.2673.0717.5675.0022.8419-.3909.0992-.892-.0309-.8863.5193.0051.5023.4583.4714.9345.4702,2.1705-.0045,1.6784.1228,1.9267-.8926.2279-.051.5916-.011.7614-.1788.1749-.173.1681-.508-.0005-.6761-.2614-.2608-1.3142-.0743-1.7025-.1831-.2444-1.0287.1553-.701-.9366-.9352-.0689-.2622-.076-.5885.0051-.8433.2412-.0774.5814-.0045.7546-.1837.1641-.1695.1193-.5235.1769-.7648.4221-.0966.8841.01.8895-.5164.0054-.5321-.4966-.4088-.919-.5174l.0346-.8767.8441.032c.0641.2523-.0017.5837.1806.7597.15.1446.4924.1837.6735.0017.3575-.3594-.0275-1.2577.2109-1.6815.4983-.2514.8598.203.864-.805.0023-.5667.1245-1.0863-.4686-1.1416-2.175-.2024-1.1058.6466-1.4669,1.8616l-.8379-.0281c-.0964-.3954.0196-1.3159-.0998-1.5837-.1652-.3716-.9054-.252-1.3603-.252-.5599,0-1.122-.0048-1.6815-.0012-.811.0057-.5619.3283-.7195.9267l-.8393-.034c-.0734-.2622-.0754-.5772-.0009-.8411Z"/><path class="cls-2" d="m4.6961,12.4444c.648-.0581,1.1404-.0788,1.7864.0105.1049.3827,0,.7889.4048.8731.4294.0893.5845-.1999.5845-.5857,0-.8623.121-1.2756-.6046-1.2758l-2.3511.0002c-1.2263-.0008-.5474.5562-.8821.8725-.4814.2302-.8637-.1675-.8637.739,0,.6478-.1126,1.1515.4677,1.2062.4422.0419.9822-.0612,1.3578.0533.0802.2557.0773.5785.0076.8433-.8002.1786-1.8331-.3124-1.8331.6514v4.9711c-.0003,1.2223.0615,1.0015,1.8802,1.0074.4637.0017.9343.0513.9357-.4694.0014-.5646-.502-.4187-.9196-.519l.0295-.8433c.3816-.0995.7203.0453.8566-.3512.0596-.1735.0564-.9057.0341-1.1092-.1114-1.0106-1.7065-.0383-1.8652-.6772l.0331-.6883c.4133-.0966.917-.0045,1.368-.047.6279-.059.3181-.472.544-.8708.4235-.1999,1.3671.0932,1.6707-.201.1676-.1624.1783-.508.0012-.6761-.161-.1528-.5273-.1267-.7767-.1729l-.0304-.9652c-.0005-1.4119-.608-.6426-1.866-.9198l.0306-.8561Z"/><path class="cls-2" d="m14.0034,6.7133c-.3833.1165-.8847-.0159-.8858.5202-.0012.5522.4827.4189.8866.5176.0956.3475.0975,1.4414-.0017,1.7852-.4019.1021-.8858-.0362-.8841.5191.0017.54.4921.3999.8839.5227.0793.2557.072.5791.0062.8439l-.8428.026c-.0674-.269-.017-.6202-.1876-.7897-.1556-.1551-.5-.1712-.6684.0011-.2642.2702-.0714,1.2813-.1814,1.6983l-.8499.0343c-.1987-.9318.1069-4.1148-.1187-4.4836-.1959-.3206-.8037-.2874-.862.2653l-.0057,4.572c.0156.7212.3642.5111.8906.6514.1182.4119-.0178.8745.523.883.5244.008.419-.4872.5131-.8861,1.0993-.2423.6925.1063.9419-.9439.7765-.1673,3.6383-.0434,4.6565-.0431.6115.0003,1.8788.2333,1.8757-.4706-.0034-.7353-1.1846-.3821-1.8278-.5156-.2168-.8127.129-.8935-.9884-.8957-1.0877-.002-.7855.0703-.9865.8949l-.8498.0314-.0264-.8815c.4369-.093.9261.0141.9159-.5134-.0099-.5292-.4581-.4161-.8858-.5173-.3399-1.4151.4263-3.7145-.5185-3.7137-.542.0003-.4093.5105-.5221.8878Z"/><path class="cls-2" d="m16.9276,20.9209c.4085-.1083.9122-.0103,1.3618-.0533.5422-.0522.4683-.4258.4683-.9375,0-.4663.0558-.9345-.4712-.9362-.5312-.0017-.4093.4955-.5193.8875-.3535.0975-1.4286.0927-1.7847-.0026-.2075-.8169.0896-.8889-.987-.8892-1.1387-.0006-.7662.1066-.9907.8909-.5618.1579-1.635-.0096-2.3031.0513-.8434.0766-.2501,1.2535-.544,1.8122-.3912.1922-.8592-.0255-.8595.5361,0,.5204.4785.4722.9355.4714.4198-.0009,1.0153.0362,1.4127-.0009.6251-.0584.3328-.487.5434-.8722.3405-.1709.938-.0289,1.336-.0712.5601-.0592.4037-.4266.5151-.9223l.8484.0317c.068.265.0714.5876-.0063.845-.4549.1239-.82-.049-.8838.5193-.0471.4204.1083,1.0035-.0811,1.3439-.3455.1675-.8626-.0439-.8597.5372.0022.5119.4714.4708.9371.4708.5151.0003.8884.0539.9386-.4683.0428-.4456-.0528-.964.0479-1.398l.8461.0312c.0882.369-.0193.7452.3504.8589.9901.3041.5828-1.5917.5825-1.5923-.2248-.4997-1.2079.1477-.8334-1.1434Z"/><path class="cls-2" d="m19.11,16.2355c.3095-1.6997-.8294-2.9537-2.1574-3.2346-3.5003-.7413-4.7073,4.6165-1.0897,5.396,1.6135.3475,3.0053-.834,3.2471-2.1614h0Zm-4.767-.5687c0-.0198.0161-.0433.0255-.0552.036-.0443.0927-.0703.1463-.0916l.2304-.0884c.0765-.0284.1539-.0604.2305-.0879.0198-.0074.038-.0153.0584-.0227.0201-.0074.0365-.0136.0567-.0215l.2301-.0885c.0774-.0309.1531-.057.2305-.0884l.3458-.1318c.1148-.0465.2288-.0856.3439-.1318l.4609-.1764c.1156-.0419.2304-.0887.3452-.1323l.4612-.1763c.0389-.0154.0763-.0287.1151-.0446l.1735-.0666c.0519-.0201.1247-.0538.1814-.0538.0553,0,.0989.0218.1253.053.059.0697.0462.1729.0292.256-.0266.1292-.057.2551-.0819.384l-.0204.0959c-.0304.1275-.0528.2565-.0822.3843l-.0411.1919c-.0216.1055-.0465.2305-.0715.3351l-.051.239c-.038.1927-.0828.3841-.1227.5762l-.0411.1922c-.0077.0326-.0131.0641-.0204.0958-.0233.0973-.0338.2336-.0973.3119-.0538.0669-.1304.0651-.2049.0379-.0578-.0209-.1128-.068-.1622-.1046-.0105-.0076-.0187-.0144-.03-.0221l-.1222-.0893c-.1207-.0915-.2463-.1783-.3676-.2695-.0108-.0083-.0207-.0151-.0315-.0233l-.1525-.1117c-.0108-.0073-.0196-.0144-.0301-.0221-.0391-.0286-.0277-.028-.0674.0116l-.2259.2166c-.0066.0065-.0111.0085-.0179.0153l-.1046.0998c-.0116.0108-.0218.0221-.0334.0334-.0224.0224-.0454.0463-.0735.0618-.009.0051-.0139.008-.0238.0119-.0258.0105-.0544.0159-.0839.0159,0-.0184.004-.0416.0048-.0592.0009-.0201.0006-.0414.0034-.0607.0034-.0198.0017-.0402.004-.0601.002-.0187.0037-.0397.0045-.0601l.0168-.2398c.0065-.0572.0073-.1216.0139-.1788l.0144-.2115c-.0003-.025.0097-.0224.0244-.0374.03-.0306.0876-.0751.1176-.1058l.1355-.1213c.0312-.0309.0913-.0788.1177-.1057l.32-.2869c.0065-.0054.0102-.0108.0167-.0161.0074-.006.0097-.0077.0165-.0145l.2035-.182c.0323-.0312.0683-.0598.1009-.0915l.2021-.1806c.0332-.0309.0689-.0598.1009-.0919.0068-.0062.0105-.0079.017-.0138.0323-.0315.0681-.0604.1007-.0916.0068-.0062.0102-.0079.017-.0145l.1355-.121c.0258-.0235.036-.0638-.0117-.0638-.0481,0-.0847.0216-.1182.0434l-.1839.1154c-.1137.0734-.2296.1431-.3439.2148l-.0672.0425c-.0153.0094-.03.0182-.0456.0281l-.5046.3158c-.0153.0102-.0294.0187-.0453.0283-.0692.0426-.1607.0981-.2296.1438l-.5264.3293c-.0394.0244-.0298.0295-.076.0142-.038-.0127-.0742-.0224-.1122-.0354l-.2866-.089c-.055-.0185-.1137-.0338-.1687-.0522-.0759-.0255-.1511-.0459-.2265-.0709-.0408-.0133-.0737-.0218-.1074-.0425-.0368-.0218-.0629-.0467-.0629-.0961Z"/><path class="cls-2" d="m25.156,3.051c.5845-.1004,1.753-.0618,2.4021-.0448,1.8436.0487,1.5962,1.1979,1.5412,3.4217-.0456,1.8467-1.2314,1.5962-3.4228,1.5406-1.8664-.0473-1.5835-1.2679-1.5415-3.422.0167-.8586.2097-1.3561,1.021-1.4955h0Zm.0318-.9604c-.9978.108-1.6702.6528-1.8975,1.5471-.1526.5996-.1384,2.647-.0701,3.3106.0992.961.6925,1.6591,1.5441,1.8717.5887.1469,2.6424.1296,3.3131.0632.9609-.0952,1.6631-.6899,1.8714-1.5451.1432-.5876.1355-2.63.0672-3.2947-.1006-.9768-.6982-1.6745-1.5497-1.8862-.5913-.1468-2.632-.1363-3.2785-.0666Z"/><path class="cls-2" d="m4.6907,23.4851c.5247-.1174,1.7734-.0712,2.3783-.0596,1.9227.0372,1.6447,1.1231,1.6104,3.3568-.0295,1.9129-1.1387,1.6518-3.3571,1.6101-.8357-.0156-1.3913-.1667-1.554-.9258-.1193-.5578-.0666-1.8113-.0572-2.4313.0139-.9045.1533-1.3657.9796-1.5502h0Zm4.879,4.0359c.0975-.5762.0947-2.6957-.0068-3.2898-.1553-.9091-.8379-1.5512-1.7512-1.6969-.593-.0944-2.7105-.0972-3.2976.01-.9079.1655-1.5341.8027-1.6925,1.7492-.0981.5854-.093,2.723.0113,3.2967.1655.9108.815,1.5565,1.7382,1.6923.654.0961,2.6651.1015,3.3041-.0105.9226-.1621,1.5361-.8155,1.6945-1.751Z"/><path class="cls-2" d="m4.8934,3.0314c.6463-.0714,1.7572-.0522,2.4469-.0187.7965.0388,1.2387.3563,1.3184,1.1429.066.6543.0499,1.8065.0127,2.4761-.0445.8008-.3688,1.2382-1.1398,1.317-.671.0686-1.7923.0484-2.4803.0156-.8005-.0383-1.2359-.3782-1.3164-1.1356-.0715-.673-.0485-1.7946-.0165-2.4863.0383-.8365.3583-1.2209,1.175-1.311h0Zm-.2285-.9261c-.9524.1335-1.622.6973-1.8212,1.6444-.1239.5873-.1143,2.6804-.0306,3.3075.1247.9348.7778,1.62,1.6409,1.7855.6038.1159,2.6748.1157,3.3092.0258.9581-.1361,1.5999-.7464,1.7836-1.6427.1182-.578.1193-2.6764.0334-3.2941-.1315-.9479-.7662-1.6251-1.6469-1.798-.5996-.1177-2.6453-.1157-3.2684-.0284Z"/><path class="cls-2" d="m22.4679,11.4152c-.6769.1794-1.7543-.2631-1.828.5187-.1568,1.66.2863,1.3283.8906,1.4576.1012.3894-.0765,1.4428.1806,1.7027.1709.1727.5111.1718.6769.0006.2429-.2503.0215-.6199.2443-.7628.2285-.0726.5514-.0612.7733.0054.0771.252.0746.5788.0091.8436-.1684.036-1.0979-.0332-.8674.6851.1409.4399.9099.3022,1.3827.3022.4669.0003,1.1988.1083,1.3635-.2489.1001-.2171.0074-.4847-.1222-.5882-.1624-.1295-.4955-.0955-.7208-.1525-.1179-.4127.0672-1.4573-.1809-1.7013-.2622-.2583-1.3119-.0769-1.7016-.1764l-.0332-.8441c.4181-.1083,1.4726.0774,1.7326-.1829.1411-.1411.303-.7353-.3391-.8039-.117-.0124-.703.1338-.4192-.8934.3824-.1078.8889.0096.8895-.5193.0008-.527-.4731-.4746-.9388-.4743-.5015,0-.8921-.0734-.9397.47-.0389.4436.0604.9848-.0522,1.3621Z"/><path class="cls-2" d="m11.7042,26.5176c-.5522.0011-.4184.487-.5162.8926-.248.053-.5921.023-.7597.1786-.1814.1681-.1499.5111.0014.669.2546.2653,1.2824.0912,1.6971.1836.2583,1.014-.2494.8876,1.9285.8935.4648.0014.9351.034.9368-.47.0023-.5618-.4904-.4118-.8853-.5198-.1278-.4363-.0515-1.73-.0515-2.3018.0002-1.7039-.0153-1.2517-.8913-1.4547-.0901-.3331.0292-.7483-.3512-.8671-.9844-.3076-.5839,1.5999-.5839,1.5999.146.318.4813.2148.8371.2953.0847.3563.085,1.427.0051,1.7901-.2705.0709-.5772.0686-.8513-.004-.0998-.3948.0142-.8866-.5156-.8852Z"/><path class="cls-2" d="m8.4682,14.3382c.0116-.007,1.1803-.5252.8385.8462-.4164.0927-.8859-.0264-.8884.5139-.0023.5386.4992.4048.8869.5207.1474.6038-.0898.8765.7195.8893,1.4502.0116,1.0607-.0667,1.2557-.8887.254-.0743.5757-.0085.7606-.1854.1655-.1587.1751-.5057,0-.6741-.2509-.2412-1.2844-.0895-1.7181-.1752-.1109-2.0829.1658-1.8391-1.4403-1.8382-1.0568.0003-1.4105-.2424-1.4105.8736,0,.4623-.0768,1.0641.5278.9972.5082-.0564.3424-.4946.4683-.8793Z"/><path class="cls-2" d="m25.0857,6.2263c.1089.955,1.3366.8978,2.266.7909.9601-.11.9037-1.3201.7974-2.262-.1105-.982-1.349-.9035-2.2615-.8031-.9912.1088-.9065,1.3552-.8019,2.2742Z"/><path class="cls-2" d="m4.6751,6.2935c.1435.8683,1.4131.8535,2.3128.7158.4207-.0641.6835-.3521.7376-.7895.0363-.2951.0371-1.2342-.0085-1.5222-.0692-.4362-.3555-.6888-.7875-.7396-.3058-.0362-1.2359-.0396-1.5312.0086-.4289.0705-.6832.3472-.7339.7877-.0352.3042-.0377,1.2458.0107,1.5392Z"/><path class="cls-2" d="m4.6751,26.7149c.0641.3855.3507.6774.7915.7265.3047.0343,1.2248.0349,1.5213-.0102.4258-.0649.682-.3597.7362-.7903.0365-.29.0397-1.2379-.0043-1.5211-.0649-.4204-.3812-.6925-.7903-.7401-.2868-.0335-1.2518-.04-1.5174.002-.4481.0711-.6964.3622-.7472.7942-.0357.3025-.038,1.2476.0102,1.539Z"/><path class="cls-2" d="m26.2346,16.1241c-.4051.0861-.9017-.0026-.8884.5125.0136.5266.4618.4113.8836.5227.119.4093-.017.875.523.883.5264.0073.4181-.4884.5145-.885.2786-.0638,1.4864-.1097,1.7572.0187.1649.275.007.6253.286.8011.2928.1842.6179.0096.697-.2248.076-.2245.036-1.7042.036-2.0543,0-.5315.1432-1.7331-.6888-1.3581-.4527.2041-.167,1.2887-.3022,1.7793-.3305.0893-1.4556.0876-1.7844-.0014-.1049-.3886.0252-.8858-.5165-.8855-.5607.0003-.4175.4864-.517.8918Z"/><path class="cls-2" d="m29.1495,24.6765c.3135-.0661.665.0014.8195-.2492.1828-.2965.0192-.6174-.2251-.6984-.1675-.0556-.8442-.0491-1.0474-.0363-.828.0516-.5338,1.034-.5343,2.6195-.0003,1.3158-.0488.9303.8903,1.1916.1046.3708-.0181.7356.3538.8572.3702.1211.6049-.1116.6352-.4345.1562-1.6614-.2883-1.3275-.8903-1.4573-.0961-.3538-.0922-1.4306-.0017-1.7926Z"/><path class="cls-2" d="m11.1577,17.9822c-.3759.1859-.6948-.0471-.8283.3713-.1182.3708.1052.6066.4317.635.4178.0363,1.9877.102,2.2227-.1296.2279-.2245.1678-1.8085.1298-2.2215-.0315-.3464-.305-.5836-.6851-.4147-.3368.1497-.2109.4907-.3008.8388-.2407.0598-.5854.0022-.7622.1786-.2149.214-.0601.4702-.2078.7421Z"/><path class="cls-2" d="m23.4569,28.8664c.0445-.4227.0026-1.0962.0043-1.5472.0022-.6715-.0607-.805-.7393-.8073-.525-.0017-1.0689-.0975-1.1324.4144-.1228.9913,1.3011-.102.8807,1.4242-.4436.102-1.084-.0301-1.4828.0601-.4643.1048-.438.7602-.0508.8931.2053.0703,1.2226.0304,1.5157.0309.5488.0015.9474.074,1.0046-.4682Z"/><path class="cls-2" d="m28.1126,10.4803c-1.101.2511-.6755-.1298-.9372.94-.6083.1323-1.0394-.2288-.8929,1.4584.0283.3262.2682.5573.6398.4405.3498-.11.2613-.5171.3452-.8609.252-.0675.5834-.0054.7617-.1848.1704-.1718.1256-.546.1837-.7625.5596-.1282,1.0465.244.8892-1.4579-.0312-.3353-.2744-.5581-.6398-.4408-.3784.1216-.2644.5156-.3497.868Z"/><path class="cls-2" d="m7.423,17.0649c-.4096.0941-1.4343-.0927-1.7013.1743-.1749.1749-.1627.5207.0025.6775.1622.1539.5324.1193.7552.1851.119.3886-.0111.9408.5839.883.4703-.0459.3898-.51.4136-.6664.0967-.6358,1.4097.0428,1.7728-.4377.155-.2047.1233-.5253-.0655-.6724-.1706-.1326-.5173-.0969-.7262-.1451-.1041-.4142.0158-.8762-.5171-.8878-.5451-.0119-.415.5094-.5179.8895Z"/><path class="cls-2" d="m15.9355,5.5545v3.426c.0005.8212.9266.8339.9433.0034.0108-.5335-.1428-1.7666.0763-2.1532.3903-.1962.8654.0289.8544-.5361-.01-.5246-.4587-.4252-.885-.5147-.0865-.3498.0334-.7991-.4028-.881-.4666-.0873-.5862.2355-.5862.6556Z"/><path class="cls-2" d="m6.4845,20.9149c.1692.6352-.0842.8966.7849.8972.4754.0005,1.1648.0394,1.6146-.0032.6027-.0566.5851-.7696.1695-.9073-.3943-.131-1.1126.0402-1.5307-.0788-.0881-.3405.0193-.7436-.3481-.8623-.0533-.0173-1.9757-.309-1.533.6607.1429.3127.5006.2228.8428.2937Z"/><path class="cls-2" d="m17.7698,3.8977c-.4153.0861-.8918-.0233-.8907.5142.0009.5289.4848.4113.8878.5198.1418.512-.2228,1.0738,1.4616.8862.3246-.036.5624-.2362.4351-.6333-.1196-.3728-.4975-.2492-.86-.3521-.1018-.4294.089-1.4187-.1809-1.6959-.1811-.1857-.5122-.1633-.6692,0-.1557.1615-.1242.5315-.1837.7611Z"/><path class="cls-2" d="m5.9088,9.6149c-.2982.0997-.4383.46-.2155.7398.1945.2446.6718.1712,1.0395.1709.3824-.0002,2.0889.0437,2.3207-.0314.2775-.0902.413-.4754.2002-.7433-.1903-.2386-.6917-.1664-1.0429-.1658-.4269.0006-2.0319-.0609-2.302.0298Z"/><path class="cls-2" d="m9.6525,20.8395c.377.1151.6023-.1168.6366-.4385.1633-1.531-.2381-1.4125-.9362-1.4108-.9213.0025-1.8729-.1834-1.8766.4697-.0042.7645,1.2385.352,1.8315.521.0862.358-.0371.7421.3447.8586Z"/><path class="cls-2" d="m21.6334,3.0555c.3175-.1009.6877.0179.8359-.3053.167-.3634-.0535-.6576-.4181-.6885-.2126-.0179-.9467-.0272-1.1148.0286-.449.1488-.2988,1.2716-.2994,2.0546-.0003.4234.0454.7307.472.7293.7841-.0028.3311-1.2124.5244-1.8187Z"/><path class="cls-2" d="m20.6878,15.1784c-.1738-.6196.2573-1.8167-.5196-1.8221-.423-.0031-.4748.3107-.4728.7285.0036.7855-.1483,1.8964.3016,2.0475.0368.0125,1.9692.3308,1.5261-.6489-.1491-.3302-.4787-.2131-.8353-.305Z"/><path class="cls-2" d="m25.2878,10.4726c-.3296.0975-.6976-.0082-.8351.3056-.4314.9865,1.4834.6758,1.5333.6591.3685-.1233.2611-.5213.3453-.8655.3458-.0816.7044.0176.8444-.2973.4277-.9615-1.4632-.6834-1.5361-.6593-.3813.1275-.2497.5252-.3518.8574Z"/><path class="cls-2" d="m10.2994,26.1105c.0807.5219.8985.6151.9371-.1309.0187-.3615.0377-1.5662-.0105-1.8805-.0802-.5253-.8974-.6021-.9332.1267-.0181.3668-.0419,1.5689.0066,1.8847Z"/><path class="cls-2" d="m19.6483,8.593c-.3189.0879-.6472-.0218-.8189.2613-.1763.2903-.0159.6191.227.6979.1823.0593.8263.0462,1.048.0343.6534-.0351.534-.4547.534-1.2778,0-.3907-.1434-.6809-.5864-.5857-.4406.0944-.2949.4884-.4037.87Z"/><path class="cls-2" d="m19.9879,5.8879c-.4975.229-.2874.739.0093.8399.222.0757,1.1486.0672,1.3303-.015.347-.1565.3388-.7229-.049-.8536-.3243-.1094-1.0267-.0929-1.2906.0287Z"/><path class="cls-2" d="m12.4928,7.7346c-.4266.1432-.3197.6214-.3203,1.1124-.0006.4524.1156.8691.6443.71.3866-.1162.2993-.6664.2991-1.1151-.0003-.4374-.1007-.8827-.6231-.7073Z"/><path class="cls-2" d="m10.614,3.0396c-.4303.1443-.4071.6985-.0686.8544.165.076,1.1313.0765,1.3283.0116.3637-.1202.4127-.6809.0476-.849-.212-.0975-1.1083-.0839-1.3073-.017Z"/><path class="cls-2" d="m15.0173,28.0585c.0953.4243.5896.3353,1.0534.3367.4592.0015.8997-.0521.7911-.5856-.0898-.4436-.6239-.3549-1.0604-.3563-.464-.0011-.9111.0405-.7841.6052Z"/><path class="cls-2" d="m15.2889,3.0694c-.3793.1567-.3044.3396-.2959,1.1438.0045.4254.1783.8413.6879.6145.3478-.1548.2628-.703.2574-1.1562-.0054-.4689-.157-.8054-.6494-.6021Z"/><path class="cls-2" d="m18.1349,6.7984c-.4108.1321-.3192.6165-.3195,1.108-.0003.4485.1145.8703.6423.709.3926-.1199.3014-.6727.3019-1.1138.0006-.4484-.115-.8676-.6247-.7032Z"/><path class="cls-2" d="m10.2937,5.4873c.0003.5301-.0967,1.1169.3005,1.2427.9487.3005.7086-1.6112.43-1.7716-.4133-.2378-.7308.0544-.7305.5289Z"/><path class="cls-2" d="m8.7227,11.4954c-.5646.197-.3036,1.0794.3286.8824.5349-.1664.3118-1.1058-.3286-.8824Z"/><path class="cls-2" d="m28.1117,14.959c.2786-.6298-.6143-.9164-.841-.4198-.2741.5995.5975.97.841.4198Z"/><path class="cls-2" d="m16.8814,28.9318c.059.5622.9921.5432.9278-.1261-.0573-.5944-.9978-.54-.9278.1261Z"/><path class="cls-2" d="m12.4928,3.9739c-.5788.1948-.3127,1.0721.3203.8796.5256-.1596.3266-1.097-.3203-.8796Z"/><path class="cls-2" d="m25.3513,14.8247c.0601.5819.9907.5349.9241-.1284-.0578-.5763-.9938-.5457-.9241.1284Z"/><path class="cls-2" d="m20.5888,26.2449c.2798-.6435-.6389-.8955-.845-.4221-.265.6092.6072.9692.845.4221Z"/><path class="cls-2" d="m23.4674,23.2889c.0553.5573.9953.5443.9278-.1273-.0587-.5856-.9944-.5434-.9278.1273Z"/><path class="cls-2" d="m21.5852,17.6463c.0476.5573.9836.5442.9252-.1265-.0513-.5884-.983-.5521-.9252.1265Z"/><path class="cls-2" d="m20.0137,10.5582c-.5667.197-.3121,1.0732.3217.8785.536-.1647.3147-1.0998-.3217-.8785Z"/><path class="cls-2" d="m4.0342,9.6163c-.5919.1933-.3146,1.0896.3152.8793.527-.176.3093-1.0834-.3152-.8793Z"/><path class="cls-2" d="m28.4799,13.3776c-.5669.1922-.3231,1.0805.322.8764.5278-.1669.315-1.0921-.322-.8764Z"/><path class="cls-2" d="m19.7058,27.9913c.057.5669.9876.5454.9261-.1261-.0538-.5902-.9918-.5312-.9261.1261Z"/><path class="cls-2" d="m24.406,17.6463c.0584.572.987.5289.9215-.1265-.0598-.6023-.9896-.5388-.9215.1265Z"/><path class="cls-2" d="m18.7628,25.17c.0581.5783,1.0026.5326.9252-.125-.0686-.5825-.9921-.5403-.9252.125Z"/><path class="cls-2" d="m26.2885,19.5271c.062.5802.9881.5147.9258-.1273-.0567-.582-.9984-.5502-.9258.1273Z"/><path class="cls-2" d="m25.3508,18.5865c.0586.5794.9898.5406.924-.1281-.0564-.574-.9912-.536-.924.1281Z"/><path class="cls-2" d="m11.5545,6.7944c-.5697.1851-.335,1.0859.3164.8759.5196-.1675.3226-1.0837-.3164-.8759Z"/><path class="cls-2" d="m15.0023,26.1105c.0598.5791.9839.5267.923-.1247-.0559-.599-.9907-.5332-.923.1247Z"/><path class="cls-2" d="m26.2887,26.1105c.0616.5718.9822.5338.9261-.1287-.0487-.5746-.9981-.5405-.9261.1287Z"/><path class="cls-2" d="m18.1337,9.6146c-.5592.1876-.3115,1.084.3238.8816.5105-.163.3265-1.0996-.3238-.8816Z"/><path class="cls-2" d="m18.7659,27.0508c.0674.5842.9881.5094.9246-.1273-.0592-.5916-1.0014-.5383-.9246.1273Z"/><path class="cls-2" d="m19.7041,17.6463c.0508.555.9856.5442.927-.1262-.0496-.5675-.9893-.555-.927.1262Z"/><path class="cls-2" d="m15.9411,25.17c.0457.5615.9834.5417.927-.1253-.0491-.5825-.9808-.5397-.927.1253Z"/><path class="cls-2" d="m18.7038,28.1257c.2922-.6211-.6202-.8961-.8385-.4221-.267.5808.5723.9873.8385.4221Z"/><path class="cls-2" d="m13.1178,23.2889c.0638.5607,1.0024.523.9264-.1247-.0694-.5933-1.0012-.5332-.9264.1247Z"/><path class="cls-2" d="m16.2303,2.1289c-.1661.072-.169-.0536-.2594.2352-.1514.4831.2795.7546.654.5893.4461-.1964.2576-1.1063-.3946-.8245Z"/><path class="cls-2" d="m29.1089,19.5271c.0491.5632.9973.5232.9287-.1273-.0618-.5823-.9856-.5301-.9287.1273Z"/><path class="cls-2" d="m21.8712,4.951c-.1233.0573-.4393.1667-.2364.6168.0913.2024.3305.3306.6299.2022.4983-.2138.2131-1.1007-.3935-.819Z"/><path class="cls-2" d="m29.3972,12.4756c-.1275.0587-.1947.0008-.2664.229-.0445.1412-.0352.2534.0263.3878.0865.1888.3382.3283.6316.2021.4839-.208.2341-1.1066-.3915-.8189Z"/><path class="cls-2" d="m3.0597,10.5872c-.1182.0544-.1925.0331-.2597.2378-.1383.4226.2455.7767.6588.593.485-.2154.1942-1.1038-.3991-.8308Z"/><path class="cls-2" d="m16.88,27.0508c.0646.5621,1.0009.5232.9266-.125-.0672-.5857-1.0015-.5259-.9266.125Z"/><path class="cls-2" d="m21.8746,7.7698c-.1539.0714-.1817-.0113-.2619.2373-.1533.4739.2891.7423.6531.5847.4927-.2137.214-1.1026-.3912-.822Z"/><path class="cls-2" d="m13.4075,4.9513c-.2092.0933-.4127.2444-.2429.6225.0876.1956.3572.3237.6361.1967.4791-.2182.2265-1.0956-.3932-.8192Z"/></g></svg>